<?xml version="1.0" standalone="no"?>
<!DOCTYPE svg PUBLIC "-//W3C//DTD SVG 20010904//EN"
 "http://www.w3.org/TR/2001/REC-SVG-20010904/DTD/svg10.dtd">
<svg version="1.0" xmlns="http://www.w3.org/2000/svg"
 width="600.000000pt" height="360.000000pt" viewBox="0 0 600.000000 360.000000"
 preserveAspectRatio="xMidYMid meet">

<g transform="translate(0.000000,360.000000) scale(0.100000,-0.100000)"
fill="#000000" stroke="none">
<path d="M1555 1181 c-101 -26 -165 -125 -151 -231 15 -111 101 -183 219 -182
142 1 227 94 214 233 -6 73 -35 121 -93 155 -47 28 -135 40 -189 25z m124 -96
c30 -15 61 -69 61 -104 0 -40 -28 -90 -62 -111 -84 -51 -168 7 -168 116 0 39
5 51 34 80 38 38 86 45 135 19z"/>
<path d="M2260 1183 c0 -10 138 -371 150 -392 4 -8 26 -14 55 -15 l49 -1 42
115 c25 67 45 109 48 100 4 -8 23 -60 45 -114 l38 -99 48 0 c30 0 50 5 55 14
11 19 150 384 150 393 0 4 -24 6 -52 4 l-53 -3 -47 -124 c-26 -68 -49 -125
-52 -128 -2 -2 -21 40 -41 94 -67 174 -61 163 -95 163 -34 0 -29 10 -95 -163
-21 -54 -40 -96 -42 -93 -3 3 -26 60 -52 128 l-46 123 -53 3 c-28 2 -52 -1
-52 -5z"/>
<path d="M4294 1176 c-43 -19 -64 -53 -64 -104 0 -53 25 -79 101 -106 67 -24
99 -51 99 -87 0 -69 -86 -101 -151 -56 -27 18 -40 22 -48 14 -17 -17 -13 -26
22 -47 22 -14 50 -20 91 -20 53 0 61 3 92 34 27 27 34 42 34 74 0 57 -33 92
-114 121 -36 12 -70 29 -77 37 -19 23 -13 77 12 96 27 23 92 23 125 2 18 -12
28 -14 36 -6 15 15 1 32 -38 48 -41 17 -80 17 -120 0z"/>
<path d="M1090 978 l0 -203 45 0 45 0 0 78 0 77 80 0 80 0 0 40 0 39 -77 3
-78 3 0 40 0 40 83 3 82 3 0 39 0 40 -130 0 -130 0 0 -202z"/>
<path d="M1912 978 l3 -201 45 0 45 0 3 81 c2 62 6 82 17 82 7 0 33 -37 58
-82 l45 -81 56 -1 c31 -1 56 0 56 1 0 1 -22 37 -50 81 l-49 80 39 40 c50 50
55 103 14 151 -33 39 -77 51 -192 51 l-92 0 2 -202z m196 110 c7 -7 12 -21 12
-33 0 -32 -20 -45 -67 -45 l-43 0 0 45 0 45 43 0 c24 0 48 -5 55 -12z"/>
<path d="M3047 1153 c-16 -32 -157 -367 -157 -374 0 -2 23 -4 52 -4 50 1 52 2
63 35 l12 35 81 3 82 3 15 -38 c15 -37 17 -38 65 -38 28 0 50 5 50 10 0 6 -36
96 -79 200 l-79 190 -46 3 c-41 3 -46 0 -59 -25z m78 -145 c10 -29 20 -59 23
-65 3 -9 -11 -13 -48 -13 -38 0 -51 3 -47 13 2 6 13 36 23 65 10 28 21 52 24
52 3 0 14 -24 25 -52z"/>
<path d="M3360 978 l0 -203 45 0 44 0 3 80 c4 104 18 104 78 0 l45 -79 53 -1
c28 0 52 2 52 5 0 4 -22 42 -49 85 l-49 80 28 17 c37 22 50 47 50 98 0 56 -14
78 -63 101 -32 14 -66 19 -139 19 l-98 0 0 -202z m194 106 c39 -38 8 -74 -63
-74 l-41 0 0 45 0 45 44 0 c27 0 51 -6 60 -16z"/>
<path d="M3742 980 l3 -202 109 0 c94 0 114 4 155 24 26 14 58 42 76 67 26 38
30 51 29 111 0 57 -5 75 -27 109 -43 65 -91 84 -230 89 l-117 4 2 -202z m228
92 c65 -49 59 -160 -10 -194 -19 -10 -54 -18 -77 -18 l-43 0 0 121 0 122 52
-6 c29 -4 64 -15 78 -25z"/>
<path d="M4611 988 c-46 -106 -85 -198 -88 -205 -3 -7 4 -11 17 -10 16 1 28
15 46 54 l23 53 104 0 103 0 25 -52 c14 -30 31 -53 42 -54 9 -1 17 3 16 9 0 7
-37 98 -83 202 -64 149 -86 191 -102 193 -17 2 -32 -24 -103 -190z m189 -65
c0 -2 -40 -3 -89 -3 l-90 0 38 88 c21 48 41 96 45 107 5 15 17 -4 52 -85 24
-58 44 -106 44 -107z"/>
</g>
</svg>
