<?xml version="1.0" standalone="no"?>
<!DOCTYPE svg PUBLIC "-//W3C//DTD SVG 20010904//EN"
 "http://www.w3.org/TR/2001/REC-SVG-20010904/DTD/svg10.dtd">
<svg version="1.0" xmlns="http://www.w3.org/2000/svg"
 width="2480.000000pt" height="744.000000pt" viewBox="0 0 2480.000000 744.000000"
 preserveAspectRatio="xMidYMid meet">

<g transform="translate(0.000000,744.000000) scale(0.100000,-0.100000)"
fill="#000000" stroke="none">
<path d="M4623 7128 c-2 -19 4 -43 12 -54 8 -10 15 -14 15 -7 0 6 -4 15 -10
18 -5 3 -10 14 -10 23 1 10 10 0 21 -20 11 -21 21 -38 24 -38 6 0 -3 40 -12
54 -4 7 0 3 9 -7 10 -11 15 -24 11 -30 -3 -6 -1 -7 5 -3 8 5 10 2 6 -8 -4 -12
-15 -14 -41 -10 l-35 5 7 -128 c4 -70 7 -190 7 -265 1 -76 5 -135 10 -132 4 3
8 -2 8 -10 0 -9 -4 -16 -10 -16 -11 0 -14 -237 -4 -264 4 -10 18 -16 40 -16
19 0 34 -4 34 -10 0 -6 37 -10 90 -10 67 0 90 3 90 13 0 9 -12 12 -37 11 -38
-3 -38 -3 -5 4 70 15 30 27 -87 27 -66 0 -114 3 -108 7 7 4 64 8 127 8 78 0
110 3 100 10 -10 6 -11 10 -2 10 6 0 12 5 12 10 0 6 -42 10 -105 10 l-105 0 0
49 c0 58 5 61 128 61 53 0 81 4 77 10 -8 14 -158 13 -172 -1 -6 -6 -17 -9 -25
-6 -8 3 -4 9 12 16 l25 11 -25 -4 c-14 -2 -34 -7 -45 -11 -19 -7 -19 -7 -4 9
13 14 41 19 125 24 99 6 109 9 112 27 3 20 0 21 -77 14 -44 -4 -84 -10 -90
-13 -5 -4 -12 -2 -16 3 -6 11 -35 3 -35 -10 0 -4 6 -6 14 -3 8 3 17 1 21 -5 3
-7 -2 -11 -14 -11 -10 0 -25 -2 -33 -3 -7 -2 -10 -2 -5 0 4 3 7 16 7 29 0 17
6 24 20 24 12 0 20 7 20 18 0 14 -2 15 -10 2 -7 -10 -10 32 -10 129 l0 143 28
-6 c15 -4 35 -8 44 -9 10 -1 14 -5 9 -10 -9 -9 14 -34 113 -121 63 -55 69 -58
92 -46 13 8 24 17 24 22 0 5 5 6 12 2 7 -4 8 -3 4 4 -4 7 -1 12 6 12 10 0 10
2 0 9 -8 4 -13 11 -13 15 1 3 -22 36 -51 71 -35 44 -55 62 -62 55 -13 -13 -39
-13 -31 0 4 6 10 8 15 5 16 -10 22 16 8 28 -8 7 -35 41 -59 76 -24 34 -45 58
-47 51 -3 -7 -11 -5 -25 7 -20 17 -20 17 -13 -2 6 -16 5 -18 -5 -7 -11 10 -10
16 5 30 11 9 16 12 12 5 -3 -6 -1 -15 5 -18 7 -5 10 0 7 11 -2 11 -11 18 -22
17 -11 0 -15 4 -12 12 2 7 -2 16 -10 19 -9 3 -13 10 -10 15 3 5 -13 30 -37 56
l-42 47 -2 -34z m14 -210 c-2 -24 -4 -5 -4 42 0 47 2 66 4 43 2 -24 2 -62 0
-85z m153 22 c0 -5 -2 -10 -4 -10 -3 0 -8 5 -11 10 -3 6 -1 10 4 10 6 0 11 -4
11 -10z m30 -54 c-15 -15 -12 -47 8 -69 16 -19 16 -19 -3 -16 -17 4 -20 13
-21 62 -1 48 1 56 13 46 10 -9 11 -15 3 -23z m-72 6 c2 -7 -3 -12 -12 -12 -9
0 -16 7 -16 16 0 17 22 14 28 -4z m-43 -22 l20 -9 -20 0 c-11 0 -27 4 -35 9
-13 9 -13 10 0 9 8 0 24 -4 35 -9z m144 -32 c1 -5 -3 -8 -9 -8 -5 0 -10 12 -9
28 0 24 1 25 9 7 5 -11 9 -23 9 -27z m-189 11 c0 -5 15 -9 33 -10 32 -1 32 -1
5 -9 -39 -12 -49 -20 -41 -33 10 -16 12 -267 2 -267 -12 0 -16 284 -4 293 6 4
3 11 -7 18 -22 12 -24 31 -3 23 8 -4 15 -10 15 -15z m137 -69 c2 -20 -8 -26
-20 -13 -4 3 -2 12 4 20 15 17 14 17 16 -7z m104 -18 c-14 -26 -14 -43 0 -19
5 9 14 17 19 17 5 0 6 -8 3 -17 -5 -15 -4 -16 8 -7 11 9 19 5 38 -18 23 -29
23 -30 3 -17 -12 8 -22 17 -22 21 0 4 -14 6 -31 4 -34 -4 -49 15 -29 39 6 8 8
20 4 27 -5 10 -4 10 5 2 10 -9 10 -17 2 -32z m-35 -64 l19 -21 -27 18 c-29 18
-34 25 -20 25 5 0 17 -10 28 -22z m81 -2 c4 -3 3 -9 0 -13 -4 -4 -13 -1 -19 5
-7 7 -20 12 -29 12 -10 0 -20 4 -23 9 -6 9 61 -3 71 -13z m-13 -47 c8 -16 11
-29 7 -29 -4 0 -13 11 -19 25 -6 14 -16 25 -22 25 -5 0 -10 4 -10 10 0 18 30
-2 44 -31z m50 0 c-12 -13 -21 -16 -28 -9 -7 7 -4 14 9 24 27 19 40 8 19 -15z
m-159 -159 c-16 -4 -39 -8 -50 -8 -16 0 -15 2 5 8 14 4 36 8 50 8 22 0 22 -1
-5 -8z m-155 -74 c0 -3 -4 -8 -10 -11 -5 -3 -10 -1 -10 4 0 6 5 11 10 11 6 0
10 -2 10 -4z m25 -121 c32 -11 35 -14 15 -14 -14 0 -34 6 -44 14 -24 18 -21
18 29 0z m118 -12 c-13 -2 -33 -2 -45 0 -13 2 -3 4 22 4 25 0 35 -2 23 -4z
m-113 -42 c0 -6 -9 -9 -19 -8 -11 0 -17 5 -15 9 7 11 34 10 34 -1z m41 -19
c-7 -2 -18 1 -23 6 -8 8 -4 9 13 5 13 -4 18 -8 10 -11z"/>
<path d="M4969 6653 c-13 -16 -12 -17 4 -4 9 7 17 15 17 17 0 8 -8 3 -21 -13z"/>
<path d="M4694 6680 c0 -69 1 -97 3 -62 2 34 2 90 0 125 -2 34 -3 6 -3 -63z"/>
<path d="M4740 6454 c58 -8 150 -8 150 -1 0 4 -39 6 -87 6 -49 -1 -77 -3 -63
-5z"/>
<path d="M4621 6083 l-1 -133 28 0 c20 0 23 3 12 10 -8 5 -11 12 -7 16 3 4 13
2 20 -4 25 -21 40 27 33 105 -9 89 -15 110 -27 92 -7 -12 -9 -12 -9 0 0 8 8
20 18 27 15 12 14 13 -15 14 -18 0 -33 -5 -33 -11 0 -5 5 -7 10 -4 12 7 12
-21 1 -50 -7 -16 -10 -12 -19 25 -8 39 -10 27 -11 -87z m61 58 c-5 -3 -8 -17
-7 -31 1 -14 3 -34 4 -45 l2 -20 10 20 c7 15 8 13 3 -10 -4 -16 -7 -38 -8 -47
0 -10 -4 -18 -8 -18 -4 0 -8 21 -8 48 0 36 -3 44 -11 32 -8 -12 -9 -10 -5 10
3 14 6 37 6 52 0 21 4 26 16 21 9 -3 11 -9 6 -12z m-39 -41 c-3 -12 -8 -19
-11 -16 -5 6 5 36 12 36 2 0 2 -9 -1 -20z m7 -90 c0 -11 -4 -20 -9 -20 -5 0
-7 9 -4 20 3 11 7 20 9 20 2 0 4 -9 4 -20z"/>
<path d="M4122 6180 c0 -14 2 -19 5 -12 2 6 2 18 0 25 -3 6 -5 1 -5 -13z"/>
<path d="M4031 6064 c0 -11 3 -14 6 -6 3 7 2 16 -1 19 -3 4 -6 -2 -5 -13z"/>
<path d="M5211 6024 c0 -11 3 -14 6 -6 3 7 2 16 -1 19 -3 4 -6 -2 -5 -13z"/>
<path d="M4488 5953 c7 -3 16 -2 19 1 4 3 -2 6 -13 5 -11 0 -14 -3 -6 -6z"/>
<path d="M4348 5943 c18 -2 45 -2 60 0 15 2 0 4 -33 4 -33 0 -45 -2 -27 -4z"/>
<path d="M4738 5943 c17 -2 47 -2 65 0 17 2 3 4 -33 4 -36 0 -50 -2 -32 -4z"/>
<path d="M4263 5933 c9 -2 23 -2 30 0 6 3 -1 5 -18 5 -16 0 -22 -2 -12 -5z"/>
<path d="M4863 5933 c9 -2 25 -2 35 0 9 3 1 5 -18 5 -19 0 -27 -2 -17 -5z"/>
<path d="M4183 5923 c9 -2 23 -2 30 0 6 3 -1 5 -18 5 -16 0 -22 -2 -12 -5z"/>
<path d="M4963 5923 c9 -2 23 -2 30 0 6 3 -1 5 -18 5 -16 0 -22 -2 -12 -5z"/>
<path d="M5098 5923 c7 -3 16 -2 19 1 4 3 -2 6 -13 5 -11 0 -14 -3 -6 -6z"/>
<path d="M4128 5913 c6 -2 18 -2 25 0 6 3 1 5 -13 5 -14 0 -19 -2 -12 -5z"/>
<path d="M5028 5913 c6 -2 18 -2 25 0 6 3 1 5 -13 5 -14 0 -19 -2 -12 -5z"/>
<path d="M4078 5903 c6 -2 18 -2 25 0 6 3 1 5 -13 5 -14 0 -19 -2 -12 -5z"/>
<path d="M5078 5903 c7 -3 16 -2 19 1 4 3 -2 6 -13 5 -11 0 -14 -3 -6 -6z"/>
<path d="M3885 5847 c-81 -33 -127 -56 -112 -57 4 0 29 10 55 21 26 12 74 32
107 45 33 13 53 23 45 23 -8 0 -51 -14 -95 -32z"/>
<path d="M5225 5870 c11 -5 27 -9 35 -9 9 0 8 4 -5 9 -11 5 -27 9 -35 9 -9 0
-8 -4 5 -9z"/>
<path d="M5365 5830 c117 -39 200 -82 199 -102 -1 -11 4 -14 14 -11 11 5 13 3
7 -7 -5 -8 -4 -11 2 -7 11 7 28 -20 24 -36 -1 -5 3 -6 8 -3 11 7 35 -49 28
-68 -3 -8 -2 -27 3 -43 7 -25 8 -23 9 20 1 26 -5 62 -13 80 -18 43 -78 102
-129 129 -50 25 -204 78 -226 78 -9 -1 25 -14 74 -30z"/>
<path d="M3700 5759 c-88 -48 -110 -76 -116 -144 -3 -33 -2 -57 1 -54 3 3 7
30 9 60 4 46 10 58 38 82 18 16 54 40 81 53 26 13 47 27 47 29 0 7 0 7 -60
-26z"/>
<path d="M4465 5540 c-106 -8 -573 -81 -688 -107 -37 -8 -74 -12 -82 -9 -8 3
-17 0 -21 -6 -4 -7 -3 -8 4 -4 20 12 13 -5 -21 -53 -63 -87 -151 -246 -209
-376 -37 -83 -63 -128 -71 -126 -6 3 -35 7 -63 9 -57 4 -84 -13 -84 -52 0 -12
-4 -26 -9 -32 -5 -5 -14 -25 -20 -44 -6 -20 -38 -69 -72 -110 -63 -78 -89
-101 -89 -78 0 7 -21 -8 -47 -33 -27 -25 -68 -53 -93 -63 -25 -10 -67 -29 -93
-43 -27 -14 -51 -23 -53 -20 -3 3 -32 -8 -64 -24 -32 -15 -83 -38 -113 -49
l-56 -21 -77 25 c-43 14 -80 29 -83 34 -3 4 -48 20 -99 35 -133 39 -178 71
-222 157 -9 18 1 12 38 -22 59 -55 75 -60 60 -20 -15 38 -3 78 27 98 33 21
108 11 135 -19 l20 -21 0 22 c0 32 16 27 42 -12 l22 -33 34 20 c68 40 74 117
15 187 -20 24 -28 28 -43 20 -16 -8 -26 -3 -59 29 -37 37 -39 42 -31 73 6 18
10 34 10 35 0 2 11 3 25 3 14 0 25 -4 25 -10 0 -23 31 -7 55 27 42 63 35 94
-37 169 -68 71 -142 118 -201 128 -23 4 -52 21 -75 42 -20 19 -45 34 -56 34
-17 0 -14 6 17 34 22 20 37 43 37 56 0 22 -1 22 -18 7 -20 -18 -42 -22 -42 -8
0 5 7 14 15 21 25 21 17 31 -13 16 -33 -17 -79 -11 -107 15 -26 23 -71 34 -80
19 -5 -8 -11 -6 -19 5 -10 14 -18 15 -50 7 -21 -6 -43 -9 -51 -6 -7 3 -16 1
-20 -5 -3 -6 -13 -11 -21 -11 -8 0 -31 -7 -52 -16 l-37 -16 30 -12 30 -13 -30
-15 c-16 -8 -55 -24 -85 -34 -42 -14 -49 -19 -32 -22 37 -6 19 -26 -29 -33
-24 -3 -34 -7 -21 -7 38 -3 23 -35 -22 -47 -31 -9 -36 -13 -22 -18 15 -6 16
-10 6 -22 -7 -8 -19 -15 -27 -15 -8 0 -23 -5 -34 -11 -20 -10 -20 -12 -4 -29
30 -33 13 -81 -45 -126 -55 -44 -60 -53 -28 -62 21 -5 21 -6 -8 -29 l-29 -23
33 0 32 0 -21 -42 c-12 -24 -38 -58 -58 -75 l-36 -33 39 16 39 16 -15 -24
c-23 -36 -30 -106 -14 -163 l13 -50 14 45 14 45 3 -36 c2 -20 -6 -78 -17 -130
-15 -75 -18 -109 -11 -163 9 -73 20 -99 20 -47 0 18 5 42 12 54 12 22 12 21
19 -8 4 -16 7 -73 8 -125 1 -52 7 -117 14 -145 l14 -50 17 34 18 33 15 -22
c10 -14 13 -32 9 -51 -6 -32 20 -112 34 -104 5 3 11 23 15 45 4 22 11 40 16
40 15 0 29 -47 23 -78 -6 -30 34 -133 56 -147 10 -6 12 3 7 41 -4 27 -3 63 2
79 l9 30 1 -35 c1 -40 24 -81 70 -128 28 -28 32 -37 26 -65 -12 -53 -67 -180
-74 -168 -4 6 -21 -15 -38 -47 -33 -59 -126 -155 -223 -231 -82 -63 -208 -191
-223 -224 -16 -39 -77 -69 -153 -75 -55 -4 -71 -1 -128 26 -127 60 -166 186
-106 344 16 40 55 96 134 189 195 232 276 341 316 423 48 100 59 148 60 252 0
145 -56 268 -143 312 -89 47 -186 24 -302 -70 -41 -32 -84 -73 -96 -90 l-22
-30 22 12 c21 10 20 8 -6 -31 -25 -38 -28 -53 -31 -138 l-4 -96 33 45 c40 56
38 54 43 49 2 -2 -5 -35 -15 -74 -10 -38 -19 -74 -19 -78 0 -19 40 17 81 70
l44 58 5 -38 5 -39 21 24 c11 12 30 46 41 73 65 153 72 165 105 185 38 23 64
19 96 -16 20 -23 22 -35 22 -127 0 -77 -5 -112 -19 -142 -18 -39 -105 -158
-162 -220 -221 -245 -283 -324 -339 -439 -90 -183 -73 -334 53 -472 74 -81
229 -146 370 -156 l38 -3 56 -125 c33 -74 56 -139 57 -160 0 -38 -73 -197
-132 -287 -36 -55 -47 -61 -157 -84 -82 -18 -110 -46 -101 -102 18 -111 26
-203 21 -228 -7 -32 -40 -60 -61 -52 -30 11 -11 -20 50 -82 35 -36 70 -65 77
-65 8 -1 26 -19 41 -40 18 -26 36 -40 50 -41 13 0 61 -19 107 -43 l83 -42 -88
-32 c-111 -39 -338 -92 -396 -92 -53 0 -137 38 -166 75 -44 56 -19 141 72 249
31 36 51 66 45 66 -30 0 -181 -82 -216 -117 -40 -40 -70 -113 -60 -149 3 -13
5 -10 6 9 1 37 27 96 54 125 22 23 106 76 159 99 24 11 22 6 -22 -51 -110
-146 -103 -228 25 -293 37 -19 63 -25 107 -24 76 2 320 61 433 106 49 19 98
35 107 35 9 0 34 11 54 25 42 28 61 31 88 10 30 -23 46 -18 46 13 0 27 2 28
98 45 210 40 316 29 566 -54 167 -55 281 -116 586 -309 155 -99 201 -124 270
-144 166 -49 332 26 371 168 25 91 2 188 -55 229 -27 19 -43 22 -134 22 l-104
0 39 33 c63 56 104 72 180 72 81 0 144 -26 214 -88 61 -54 81 -105 81 -204 0
-167 -76 -319 -189 -380 -93 -51 -194 -72 -338 -72 -128 0 -131 0 -206 35 -41
20 -179 106 -306 191 -127 86 -269 176 -315 201 -318 173 -546 181 -912 31
-427 -176 -606 -209 -751 -139 -80 38 -112 76 -138 160 -11 34 -16 42 -16 25
-1 -41 44 -124 85 -158 61 -50 123 -67 244 -66 137 1 230 26 507 138 304 123
336 131 513 130 131 0 153 -3 230 -28 135 -45 288 -129 533 -294 341 -229 391
-250 577 -238 249 15 382 89 448 247 56 135 64 265 20 356 -27 59 -117 132
-187 154 -14 4 92 8 237 8 144 1 262 3 262 6 0 2 -73 119 -161 260 l-162 255
-318 1 c-389 1 -314 1 -821 0 l-423 -1 -51 -88 c-77 -132 -246 -417 -250 -421
-7 -7 -210 -41 -221 -36 -7 2 -13 12 -13 21 0 33 -48 83 -88 90 -20 4 -45 12
-55 19 -12 8 -40 11 -80 8 -85 -7 -100 10 -105 114 -4 68 -2 80 29 141 38 76
87 127 204 215 108 81 195 167 195 192 0 11 22 43 48 71 33 35 53 67 65 106
15 45 24 58 53 71 19 10 47 17 63 17 15 0 70 18 122 41 76 33 102 40 137 36
45 -5 52 4 27 37 -21 27 -19 47 3 39 32 -11 83 -54 122 -105 50 -62 52 -105
13 -223 -26 -82 -26 -132 0 -139 7 -2 30 -9 52 -15 48 -13 164 -87 221 -143
37 -36 42 -38 55 -22 12 14 25 16 99 9 47 -5 105 -7 130 -7 25 1 69 2 98 2 49
1 52 2 46 24 -5 21 -3 23 21 19 14 -3 30 -14 36 -24 13 -25 26 -24 34 2 l7 21
22 -21 c12 -12 26 -18 29 -14 25 24 -26 193 -68 231 -21 18 -38 22 -87 22 -60
0 -62 -1 -110 -50 -49 -50 -62 -58 -72 -41 -3 5 -27 12 -53 16 -62 9 -89 24
-140 77 -69 71 -74 91 -83 357 -10 278 -24 346 -87 401 -37 33 -55 35 -142 13
-23 -6 -23 -5 -6 21 10 15 27 26 40 26 15 0 32 13 50 40 15 22 34 40 42 40 29
0 71 30 83 59 13 32 40 50 40 26 0 -8 9 -19 19 -25 16 -8 23 -5 40 19 11 15
25 41 31 56 7 18 15 25 25 21 14 -5 65 30 96 68 22 26 73 15 64 -14 -9 -28 12
-60 38 -60 20 0 22 -4 19 -34 -3 -27 0 -37 17 -45 14 -8 21 -21 21 -41 0 -17
9 -39 20 -50 13 -13 20 -33 20 -60 0 -22 5 -60 12 -84 9 -34 9 -51 0 -70 -12
-26 -12 -26 27 -20 44 7 57 -9 41 -52 -6 -14 -10 -27 -10 -30 0 -11 30 -2 53
16 36 28 47 25 47 -14 0 -44 12 -51 50 -31 31 16 60 61 60 93 0 11 6 22 13 25
6 3 19 18 29 33 14 25 14 34 3 67 -7 22 -23 49 -34 61 -14 15 -21 35 -21 63 0
58 -29 117 -97 198 -100 119 -133 167 -133 194 0 41 -18 92 -39 115 -19 20
-20 25 -6 76 8 30 15 78 15 106 0 65 20 114 70 168 22 23 44 53 49 67 7 18 10
19 10 6 1 -9 -10 -35 -24 -57 -14 -22 -25 -43 -25 -47 1 -19 45 51 96 152 30
60 57 111 60 114 3 3 36 6 75 6 57 1 73 5 91 23 17 17 19 22 7 22 -29 0 -40
22 -22 43 12 13 20 45 24 103 4 52 13 94 23 110 18 26 43 41 52 31 3 -3 -4
-47 -16 -98 -80 -340 -91 -775 -29 -1152 46 -285 136 -563 260 -807 252 -497
633 -834 1072 -949 100 -26 414 118 607 277 386 319 655 817 768 1422 38 198
47 317 46 585 0 270 -13 414 -54 617 -24 114 -23 108 -7 108 33 -1 69 -102 59
-168 -3 -21 3 -43 17 -66 l22 -35 -20 -13 c-29 -18 -26 -27 16 -44 24 -11 51
-14 78 -10 44 7 75 0 75 -16 0 -21 103 -214 127 -238 22 -23 22 -20 -6 24 -17
28 -31 57 -31 65 1 9 9 0 19 -19 11 -19 31 -45 45 -57 39 -34 74 -112 68 -152
-2 -18 4 -67 14 -108 17 -68 17 -76 3 -86 -24 -18 -37 -49 -45 -105 -6 -45
-17 -64 -104 -172 -101 -124 -137 -194 -127 -247 3 -18 -4 -34 -25 -58 -44
-51 -47 -91 -9 -139 17 -21 31 -48 31 -58 0 -27 65 -90 87 -86 12 2 18 13 19
33 1 56 2 57 37 31 47 -36 56 -33 54 17 -2 42 -2 42 33 41 l35 -1 1 56 c2 90
16 175 30 184 7 4 16 24 20 44 4 19 15 44 26 55 13 13 16 26 12 45 -6 22 -4
25 9 20 25 -9 50 21 43 54 -4 23 -1 28 20 33 21 6 35 -1 76 -39 29 -28 55 -44
63 -41 10 3 22 -7 35 -32 30 -57 46 -73 64 -66 9 3 16 12 16 20 0 21 28 17 35
-6 9 -28 63 -70 91 -70 13 0 24 -4 24 -9 0 -20 53 -71 73 -71 12 0 30 -12 40
-26 l19 -25 -39 8 c-119 25 -161 -5 -199 -144 -11 -41 -18 -126 -23 -288 -6
-212 -8 -234 -30 -277 -33 -69 -102 -124 -176 -142 -33 -7 -67 -17 -77 -21
-11 -4 -23 3 -40 25 -35 48 -78 70 -138 70 -46 0 -56 -4 -85 -33 -22 -22 -40
-56 -54 -101 -23 -76 -25 -94 -11 -116 8 -13 12 -12 25 8 20 27 35 28 35 2 0
-24 13 -26 31 -4 15 18 50 34 62 27 4 -2 2 -14 -4 -25 -11 -20 -9 -21 29 -15
22 4 54 2 72 -5 26 -8 52 -8 114 2 102 17 147 16 161 -3 9 -13 21 -6 73 39 75
64 138 103 207 125 65 22 78 46 59 108 -60 192 -58 207 28 297 33 35 73 67 89
73 34 12 36 6 9 -34 -28 -42 -26 -45 23 -39 34 5 59 -2 139 -35 54 -23 111
-41 128 -41 43 0 100 -30 100 -52 0 -35 51 -127 86 -157 22 -17 37 -39 38 -55
4 -36 49 -82 171 -174 131 -100 193 -164 229 -236 39 -78 45 -148 17 -210
l-20 -47 -76 2 c-48 2 -79 -1 -87 -9 -7 -7 -21 -12 -32 -12 -28 0 -76 -33 -92
-62 -8 -13 -13 -38 -14 -56 0 -28 -3 -32 -22 -28 -93 20 -184 36 -204 36 -16
0 -22 4 -18 14 3 7 -54 108 -127 222 -72 115 -145 230 -161 257 l-30 47 -777
0 -777 0 -23 -40 c-12 -22 -80 -138 -152 -257 -71 -119 -129 -220 -129 -225 0
-4 456 -8 1013 -9 l1012 0 -110 -23 c-220 -47 -403 -126 -655 -286 -312 -199
-401 -240 -512 -240 -57 0 -159 50 -193 94 -77 101 -73 241 8 300 26 19 42 21
145 19 l117 -1 -40 35 c-77 68 -133 93 -206 93 -85 0 -141 -20 -210 -74 -82
-64 -104 -115 -103 -231 1 -49 9 -112 17 -138 9 -27 13 -46 10 -43 -3 3 -74
117 -158 253 l-153 248 -803 0 -803 0 -29 -50 c-79 -134 -287 -497 -287 -501
0 -2 508 -4 1129 -4 l1129 0 26 -44 c14 -24 39 -55 56 -69 104 -88 353 -139
521 -107 77 15 168 64 373 203 359 243 474 303 659 342 178 38 354 7 635 -111
242 -103 372 -142 506 -151 98 -7 191 14 251 55 50 35 93 104 99 162 3 25 3
36 0 25 -31 -115 -70 -166 -159 -207 -43 -19 -66 -22 -160 -21 -152 1 -238 26
-580 166 -175 72 -274 98 -402 104 -254 13 -409 -52 -864 -359 -285 -193 -340
-215 -514 -205 -158 10 -282 50 -359 117 -106 94 -164 344 -107 463 27 55 87
110 156 143 38 18 67 24 121 24 67 0 76 -3 132 -40 95 -64 95 -65 -21 -65 -90
0 -106 -3 -133 -22 -67 -48 -85 -177 -38 -271 28 -57 93 -111 158 -132 24 -8
67 -11 113 -8 91 6 179 47 423 201 282 176 378 225 557 281 246 77 341 80 621
20 12 -2 22 -12 22 -20 0 -13 7 -15 33 -10 25 5 50 -1 93 -20 131 -59 274
-106 424 -139 170 -38 193 -38 272 1 81 41 110 97 87 166 -15 45 -80 144 -112
171 -21 16 -20 16 18 1 112 -45 169 -88 196 -149 10 -22 19 -34 19 -27 0 31
-43 93 -86 122 -47 33 -165 90 -185 90 -6 0 5 -18 25 -40 109 -121 142 -218
92 -277 -14 -17 -49 -41 -78 -53 -44 -19 -64 -22 -118 -17 -90 8 -289 59 -403
103 -94 35 -95 36 -76 55 10 10 19 24 19 29 0 6 5 10 10 10 6 0 10 -11 10 -25
0 -14 5 -25 10 -25 6 0 46 18 90 40 44 22 88 40 99 40 11 0 33 16 48 35 15 19
49 48 75 65 42 28 108 102 108 122 0 4 -11 8 -25 8 -47 0 -55 52 -33 227 l12
96 -27 23 c-16 13 -57 29 -104 40 -100 22 -121 44 -202 205 -73 146 -75 171
-28 267 19 37 44 93 56 125 23 55 24 57 62 57 21 0 68 7 104 15 183 43 280
117 350 266 20 43 25 70 25 129 -1 144 -76 295 -240 480 -330 372 -339 387
-340 535 0 71 4 96 19 122 24 38 53 49 92 33 34 -15 55 -48 98 -156 18 -45 46
-96 62 -115 l30 -34 -5 45 -6 45 62 -68 c35 -37 66 -67 69 -67 4 0 -2 30 -13
68 -25 90 -19 108 16 55 16 -24 32 -43 37 -43 8 0 5 67 -6 158 -2 18 -13 45
-24 61 -26 35 -26 42 -3 35 31 -10 -130 137 -178 161 -64 33 -139 45 -183 30
-67 -23 -105 -54 -131 -108 -75 -155 -74 -302 4 -465 45 -94 77 -139 276 -377
149 -179 172 -214 199 -309 24 -84 2 -169 -63 -238 -32 -35 -119 -68 -177 -68
-63 0 -152 38 -160 69 -7 28 -133 155 -236 237 -106 84 -201 183 -223 232 -10
23 -25 42 -32 42 -6 0 -25 33 -42 73 -44 108 -46 120 -17 147 47 44 78 99 77
135 -1 19 3 35 9 35 7 0 10 -27 7 -80 -3 -70 -1 -78 10 -63 28 37 46 90 52
152 3 36 10 66 16 68 7 2 17 -18 25 -47 l13 -51 19 37 c13 26 17 48 13 74 -4
25 -1 43 10 56 9 12 17 15 20 8 3 -6 11 -20 18 -30 13 -17 15 -15 26 26 7 25
14 95 16 157 1 62 5 117 9 123 12 20 25 -2 25 -43 0 -67 21 -29 27 49 3 49 -1
96 -16 164 -22 100 -27 155 -12 146 5 -3 12 -22 15 -41 10 -50 22 -43 30 18
10 84 7 110 -15 151 l-20 38 23 -16 c35 -25 58 -19 25 6 -29 21 -77 89 -77
108 0 5 12 10 27 10 l27 0 -21 22 c-20 20 -21 22 -5 34 15 11 11 17 -36 59
-46 41 -52 51 -52 86 0 21 5 39 10 39 6 0 10 6 10 13 0 8 -18 19 -40 26 -37
11 -56 40 -27 42 6 0 -4 6 -23 13 -38 14 -52 42 -23 49 10 3 2 5 -17 6 -19 1
-42 6 -50 11 -12 7 -10 11 10 18 22 8 20 11 -33 30 -32 12 -62 22 -66 22 -5 0
-14 6 -20 14 -10 11 -8 16 8 21 33 10 25 23 -21 36 -24 6 -48 15 -55 21 -6 5
-17 8 -25 7 -7 -2 -30 0 -51 5 -32 6 -41 4 -53 -11 -9 -12 -13 -14 -14 -4 0
18 -45 7 -83 -20 -32 -23 -83 -27 -117 -9 -24 13 -25 12 -7 -7 9 -11 17 -28
17 -38 0 -16 -4 -15 -30 10 -26 25 -30 26 -30 9 1 -29 23 -63 56 -85 27 -18
28 -19 6 -19 -13 0 -34 -11 -48 -25 -30 -30 -68 -50 -111 -58 -71 -14 -224
-142 -239 -201 -7 -29 6 -67 36 -106 17 -22 21 -23 43 -11 36 19 55 8 63 -35
5 -30 3 -39 -12 -47 -10 -6 -28 -21 -40 -34 -19 -20 -26 -23 -43 -13 -19 9
-24 6 -51 -37 -47 -73 -37 -135 27 -173 40 -23 43 -24 43 -7 0 6 9 23 20 37
19 23 21 24 33 8 12 -15 15 -15 28 -2 9 8 38 17 65 20 48 6 52 5 78 -26 27
-33 28 -46 9 -96 -6 -17 -3 -16 28 3 19 12 44 36 57 54 30 43 28 18 -3 -34
-32 -56 -107 -100 -217 -128 -48 -13 -85 -26 -83 -29 2 -4 -35 -19 -83 -34
l-87 -28 -75 32 c-41 17 -89 39 -107 50 -29 17 -63 18 -63 3 0 -3 20 -25 44
-48 25 -23 43 -44 41 -47 -7 -6 46 -8 57 -2 5 3 2 14 -8 25 -16 18 -15 18 25
2 22 -9 41 -20 41 -25 0 -4 12 -8 27 -8 17 0 23 -4 17 -9 -14 -14 -137 -74
-151 -74 -6 0 -10 -3 -8 -7 7 -12 -53 -63 -64 -55 -7 3 -10 3 -9 -2 2 -4 -13
-29 -33 -55 l-36 -47 -27 62 c-20 47 -31 63 -46 63 -24 0 -24 2 0 -26 11 -13
20 -28 20 -33 0 -21 -51 59 -60 95 -14 49 -35 63 -25 17 4 -25 3 -30 -4 -19
-6 8 -11 28 -11 44 0 20 -11 39 -35 62 -19 18 -35 36 -35 41 0 4 -9 19 -20 33
-11 14 -20 33 -20 43 0 9 -4 17 -10 17 -5 0 -10 -18 -10 -40 0 -46 -5 -48 -42
-17 -28 22 -42 65 -54 160 -4 36 -14 58 -40 87 -19 21 -39 52 -44 69 -8 29 -7
31 16 31 13 0 24 -4 24 -10 0 -5 6 -10 13 -10 20 0 89 -78 81 -91 -4 -8 -3 -9
4 -5 7 4 46 -27 93 -74 46 -44 85 -80 89 -80 11 0 38 -38 32 -46 -4 -3 3 -1
16 5 12 6 22 14 22 17 0 3 -4 3 -9 0 -5 -3 -12 1 -15 10 -6 15 -4 15 16 2 13
-9 41 -32 62 -52 22 -20 44 -36 49 -36 4 0 6 -4 2 -9 -3 -5 0 -13 6 -17 8 -4
9 -3 5 4 -15 24 12 11 28 -13 9 -14 23 -25 31 -25 22 0 19 8 -21 46 -19 19
-34 40 -31 47 4 14 -54 57 -77 57 -28 0 -100 42 -144 84 -29 27 -41 34 -36 21
6 -18 4 -17 -20 5 -79 71 -176 227 -176 281 0 28 -37 42 -95 36 l-52 -5 -13
40 c-25 87 -113 278 -180 394 l-70 122 25 43 c27 48 30 59 15 59 -5 0 -10 -6
-10 -13 0 -26 -25 -66 -48 -77 -45 -20 -120 -11 -462 54 -285 55 -474 71 -655
56z m-2507 -273 c6 -5 12 -15 12 -23 0 -8 8 -14 19 -14 64 0 111 -49 81 -86
-12 -13 -16 -12 -39 9 -14 14 -37 30 -50 37 -22 11 -23 11 -18 -9 6 -25 4 -26
-29 -4 -25 16 -26 16 -22 -4 1 -12 -6 -31 -17 -43 -15 -17 -16 -21 -5 -20 38
6 41 -1 16 -31 -14 -17 -26 -34 -26 -39 0 -5 -3 -16 -7 -25 -5 -15 -3 -16 15
-6 18 9 23 8 32 -9 6 -11 8 -20 5 -20 -4 0 -3 -5 1 -11 4 -8 9 -8 17 0 6 6 19
11 28 11 10 0 21 9 24 20 4 12 24 32 46 47 37 24 40 25 64 9 23 -15 25 -15 25
1 0 10 -10 23 -22 28 -25 11 -25 15 -6 87 12 45 38 74 38 43 0 -10 10 -15 29
-15 42 0 81 -17 81 -35 0 -9 9 -15 23 -15 13 0 34 -11 47 -25 l23 -24 -27 -10
c-14 -6 -26 -16 -26 -22 0 -7 -9 -9 -25 -5 -21 5 -25 3 -25 -14 0 -12 -9 -24
-22 -29 -14 -5 -18 -10 -10 -15 14 -9 52 2 52 14 0 5 16 14 35 20 19 6 35 16
35 21 0 9 33 -6 68 -29 18 -12 -4 -59 -32 -68 -12 -4 -31 -17 -43 -30 -23 -25
-43 -31 -43 -14 0 17 -21 11 -69 -17 -25 -15 -53 -26 -61 -25 -8 1 -32 -14
-53 -33 -21 -19 -34 -35 -28 -35 5 0 23 14 39 30 34 34 58 40 47 13 -30 -69
-16 -119 37 -143 23 -10 46 -17 52 -15 6 2 23 6 37 9 17 4 31 16 39 35 14 34
32 32 49 -6 11 -24 13 -25 31 -8 17 16 19 15 33 -7 8 -12 18 -37 21 -53 6 -28
4 -31 -19 -30 -14 0 -30 7 -35 15 -6 9 -21 14 -38 12 -21 -2 -31 2 -36 14 -6
16 -8 15 -27 -4 -23 -25 -30 -27 -47 -10 -9 9 -15 9 -24 0 -19 -19 -48 -15
-48 8 0 13 -7 20 -20 20 -13 0 -20 7 -20 20 0 14 -7 20 -21 20 -18 0 -20 5
-17 28 3 15 9 36 13 47 8 20 8 20 -13 1 -12 -10 -33 -38 -47 -61 -25 -44 -63
-75 -91 -75 -9 0 -22 -7 -28 -16 -10 -13 -19 -14 -52 -5 -21 6 -51 11 -65 11
-33 0 -82 53 -114 122 l-23 49 -8 -57 c-14 -93 -44 -77 -44 24 0 29 10 59 31
98 17 30 29 57 27 60 -5 5 -43 -51 -67 -98 -21 -41 -32 -34 -25 15 8 51 22 80
69 141 39 52 60 101 69 161 3 22 13 45 22 52 9 6 13 16 9 22 -3 7 2 11 14 11
11 0 22 4 25 8 6 10 137 9 154 -1z m5479 -1 c3 -3 15 -6 25 -6 10 0 18 -6 18
-14 0 -7 7 -19 15 -26 8 -7 15 -27 15 -45 0 -41 33 -121 64 -155 37 -41 64
-96 72 -146 9 -61 -4 -53 -51 32 -48 85 -57 76 -12 -13 31 -61 34 -74 28 -122
-8 -70 -28 -78 -36 -14 -3 26 -7 55 -9 63 -1 8 -14 -9 -29 -38 -50 -100 -70
-118 -134 -126 -31 -4 -62 -11 -69 -17 -9 -7 -16 -5 -24 10 -6 12 -17 21 -24
21 -30 0 -70 30 -101 77 -18 27 -40 55 -49 62 -15 13 -16 11 -6 -13 14 -39 12
-66 -5 -66 -8 0 -15 -7 -15 -16 0 -9 -9 -18 -20 -21 -10 -3 -22 -14 -25 -24
-7 -21 -41 -26 -47 -8 -3 9 -10 9 -27 0 -19 -11 -26 -10 -42 5 -15 14 -21 14
-34 4 -8 -7 -26 -10 -39 -8 -15 3 -27 -1 -34 -13 -13 -21 -52 -15 -52 8 0 17
30 83 38 83 2 0 10 -7 17 -16 10 -15 14 -13 34 15 12 17 27 31 32 31 6 0 8 -4
5 -8 -8 -13 37 -59 65 -66 34 -7 113 32 117 59 2 13 0 16 -5 8 -23 -32 -116
-39 -135 -9 -14 20 -8 60 12 94 28 46 74 42 107 -7 13 -19 23 -27 23 -19 0 25
-39 67 -81 88 -42 22 -64 26 -54 10 3 -5 3 -10 0 -10 -13 0 -50 23 -58 36 -4
8 -13 14 -19 14 -18 0 -48 32 -48 51 0 27 58 55 82 40 10 -6 24 -11 31 -11 8
0 24 -9 37 -20 26 -22 36 -25 45 -10 3 6 -1 10 -9 10 -8 0 -16 10 -18 23 -2
17 -9 21 -30 19 -20 -2 -28 2 -28 13 0 8 -6 15 -14 15 -8 0 -18 5 -21 11 -10
16 25 49 52 49 16 0 27 7 30 19 5 20 30 31 74 31 15 0 30 7 33 16 9 23 31 2
34 -32 1 -15 9 -38 18 -52 14 -22 14 -25 -3 -38 -10 -7 -24 -14 -30 -14 -7 0
-13 -9 -13 -21 0 -19 1 -20 28 -3 28 16 30 15 65 -7 20 -13 42 -36 48 -51 7
-17 16 -25 25 -21 8 3 21 -3 29 -13 13 -18 14 -17 15 12 0 39 7 46 33 33 18
-10 19 -9 13 17 -4 16 -17 39 -28 51 -21 23 -16 48 8 39 8 -3 14 -1 14 3 0 5
-7 12 -16 15 -11 4 -15 14 -12 31 5 24 5 24 -25 8 -27 -14 -29 -14 -24 1 11
27 -29 19 -67 -14 -34 -31 -35 -31 -46 -10 -18 33 10 68 61 76 28 5 43 13 46
25 3 10 12 20 22 22 24 6 130 1 138 -7z m-5357 -6 c11 -7 12 -12 3 -21 -8 -8
-14 -6 -22 10 -12 22 -5 27 19 11z m5110 1 c0 -5 -6 -14 -14 -20 -10 -9 -15
-8 -19 3 -3 8 -1 17 6 20 19 7 27 7 27 -3z m-2470 -71 l0 -50 -90 0 -90 0 0
50 0 50 90 0 90 0 0 -50z m110 -70 c110 -14 285 -55 381 -91 170 -62 344 -163
432 -251 81 -81 60 -81 -99 -2 -226 113 -530 204 -684 204 -55 0 -68 -11 -105
-93 l-27 -58 -101 3 -102 3 -39 73 -39 72 -66 0 c-154 0 -486 -119 -750 -269
-41 -23 -76 -40 -78 -37 -10 10 30 67 74 106 180 159 480 288 782 335 106 16
308 19 421 5z m-2825 -30 c3 -5 -1 -10 -10 -10 -9 0 -13 5 -10 10 3 6 8 10 10
10 2 0 7 -4 10 -10z m5250 0 c3 -5 1 -10 -4 -10 -6 0 -11 5 -11 10 0 6 2 10 4
10 3 0 8 -4 11 -10z m-4833 -132 c-15 -15 -21 4 -9 32 l10 25 5 -24 c2 -13 -1
-28 -6 -33z m4418 16 c0 -27 -18 -23 -22 6 -4 24 -2 27 9 19 7 -7 13 -17 13
-25z m-4571 -120 c22 -28 27 -78 11 -104 -12 -19 -91 -20 -113 -1 -23 18 -21
57 4 97 26 43 68 47 98 8z m1077 -29 c-11 -8 -26 -15 -34 -15 -8 0 -12 -8 -10
-17 2 -11 11 -17 23 -15 19 2 19 2 2 -9 -10 -6 -25 -8 -33 -5 -9 3 -12 1 -9
-4 3 -6 -5 -10 -19 -10 -28 0 -35 17 -11 26 8 4 15 16 15 28 0 31 7 36 54 36
38 -1 40 -2 22 -15z m2621 -7 c1 -11 9 -28 17 -37 26 -29 20 -41 -16 -34 -18
3 -35 10 -36 15 -2 4 -8 6 -12 3 -5 -3 -11 -1 -15 5 -3 5 3 10 14 10 35 0 33
20 -3 35 -20 9 -36 17 -36 19 0 3 19 4 43 4 36 0 43 -3 44 -20z m-1247 -1263
l0 -1265 -90 0 -90 0 0 1265 0 1265 90 0 90 0 0 -1265z m-1305 1215 c7 -12 -2
-12 -30 0 -19 8 -19 9 2 9 12 1 25 -3 28 -9z m2445 0 c-19 -13 -30 -13 -30 0
0 6 10 10 23 10 18 0 19 -2 7 -10z m-2560 -60 c0 -35 -45 -93 -65 -83 -5 4 -7
3 -3 -2 4 -4 2 -17 -4 -29 -7 -11 -17 -58 -24 -104 -12 -82 -27 -117 -45 -106
-5 3 -8 0 -7 -8 2 -7 -5 -12 -14 -12 -10 1 -15 -2 -12 -7 3 -5 0 -9 -5 -9 -6
0 -11 21 -11 48 l0 47 -30 -58 c-16 -32 -42 -70 -58 -85 -20 -19 -32 -42 -37
-72 -4 -25 -12 -52 -17 -60 -6 -10 -7 -2 -3 23 4 27 3 37 -4 32 -6 -3 -11 -12
-11 -19 0 -7 -10 -26 -22 -42 -13 -15 -17 -24 -10 -20 11 7 11 4 1 -12 -15
-24 -31 -20 -23 6 3 9 -6 4 -20 -13 -14 -16 -26 -36 -26 -43 0 -7 -4 -11 -9
-8 -5 4 -7 -2 -4 -13 9 -36 -14 -30 -36 9 -12 22 -42 54 -67 70 -24 17 -44 35
-44 40 0 5 -33 24 -74 44 -41 19 -77 39 -81 45 -8 14 7 14 23 1 6 -6 10 -7 7
-4 -6 9 43 51 67 57 23 6 24 -9 1 -22 -15 -8 -14 -10 12 -17 27 -7 34 -2 80
50 29 32 52 51 52 42 0 -9 -4 -16 -9 -16 -4 0 -7 -4 -6 -9 2 -4 -8 -18 -22
-29 -14 -11 -22 -24 -18 -28 7 -7 52 27 125 94 19 17 37 32 40 32 2 0 11 7 20
15 8 9 18 13 21 10 4 -3 0 -10 -8 -15 -12 -8 -11 -10 5 -10 11 0 53 31 94 70
40 38 78 67 84 63 6 -3 7 -1 3 5 -10 16 76 94 87 79 6 -8 7 -5 3 7 -7 20 39
63 62 58 8 -2 11 1 7 7 -3 7 2 11 14 11 12 0 21 -4 21 -10z m44 -66 c4 -10 1
-14 -6 -12 -15 5 -23 28 -10 28 5 0 13 -7 16 -16z m2575 -10 c-14 -18 -24 -11
-15 11 3 9 11 13 16 10 8 -5 7 -11 -1 -21z m-1729 -214 l0 -100 -205 0 -205 0
0 93 c0 52 3 97 7 100 3 4 96 7 205 7 l198 0 0 -100z m1285 67 c4 -18 5 -61 3
-97 l-4 -65 -202 -3 -202 -2 0 100 0 100 200 0 199 0 6 -33z m-4424 -47 c10
-6 19 -17 19 -24 0 -17 25 -27 44 -20 36 14 107 -169 106 -270 -1 -61 -16
-128 -32 -140 -8 -6 -22 -33 -33 -61 -30 -81 -136 -244 -194 -299 l-31 -29 10
34 c24 84 11 69 -100 -110 -42 -67 -99 -136 -113 -136 -6 0 -18 -38 -26 -84
-9 -47 -22 -86 -28 -89 -34 -10 5 -156 61 -232 19 -27 55 -57 87 -75 45 -25
65 -30 124 -30 110 0 159 19 198 75 45 67 235 268 291 308 51 37 54 36 30 -10
-29 -56 7 -25 49 42 36 59 39 59 21 0 -7 -23 8 -27 24 -7 6 7 28 56 48 107 35
93 64 147 64 122 0 -31 18 2 35 63 9 36 19 65 22 65 2 0 17 -10 33 -21 24 -18
37 -21 74 -16 26 4 57 14 71 23 13 9 28 14 32 11 30 -18 302 -69 386 -72 71
-3 101 -8 113 -19 8 -9 24 -16 35 -16 16 0 19 -5 14 -20 -5 -16 -2 -20 19 -20
19 0 26 -5 26 -20 0 -13 7 -20 20 -20 24 0 26 -23 4 -45 -14 -13 -19 -14 -25
-3 -5 7 -9 22 -9 33 -1 11 -17 -14 -37 -55 -20 -41 -38 -70 -40 -63 -3 7 0 20
4 30 5 10 6 36 3 58 l-5 40 -33 -53 c-30 -49 -52 -60 -52 -26 0 28 -17 13 -28
-25 -7 -21 -22 -51 -34 -66 l-21 -27 -13 23 c-12 23 -13 23 -19 4 -3 -11 -16
-40 -28 -65 -20 -40 -26 -45 -55 -44 -21 1 -32 -3 -32 -11 0 -17 -15 -26 -53
-34 -23 -5 -32 -14 -41 -41 -11 -33 -14 -35 -53 -32 -38 2 -42 0 -48 -26 -3
-15 -15 -43 -26 -61 -17 -29 -24 -33 -50 -27 -25 5 -31 2 -40 -18 -9 -20 -7
-32 12 -65 l23 -41 -25 -26 c-50 -54 -159 -101 -181 -78 -14 13 7 43 48 69 39
25 43 30 27 38 -10 5 -32 23 -50 40 l-32 30 -5 -24 c-3 -13 -10 -83 -16 -156
-5 -72 -14 -152 -20 -177 -11 -48 -48 -116 -64 -116 -5 0 -19 -10 -32 -22 -13
-13 -33 -31 -44 -40 -24 -21 -26 -38 -5 -38 8 0 15 -4 15 -10 0 -5 -9 -10 -20
-10 -13 0 -22 -9 -26 -27 -8 -33 -23 -45 -46 -37 -14 4 -18 0 -18 -21 0 -29
-23 -43 -44 -26 -16 13 -32 -2 -21 -19 12 -20 -6 -50 -31 -50 -19 0 -24 -5
-24 -23 0 -18 -10 -28 -41 -42 -22 -10 -45 -27 -50 -38 -10 -17 -13 -15 -31
22 l-20 42 32 30 c28 28 31 36 26 69 -6 41 2 50 52 50 l27 0 -32 26 c-37 29
-43 65 -17 102 22 32 51 28 74 -10 l20 -33 0 50 c0 30 6 60 16 74 16 22 15 24
-39 79 -30 32 -67 77 -82 101 -27 43 -27 48 -23 162 l4 118 -20 -28 c-11 -16
-39 -40 -62 -55 -36 -23 -52 -26 -126 -26 -77 0 -92 3 -154 34 -84 42 -123 81
-163 163 -40 79 -47 149 -27 236 28 119 80 201 241 382 121 136 233 280 264
341 28 57 61 180 61 229 0 47 -24 137 -48 178 -43 73 -155 0 -211 -138 -24
-60 -26 -44 -6 50 20 96 20 102 -6 79 -22 -19 -22 -19 -10 3 17 34 14 46 -8
33 -11 -5 -30 -10 -42 -10 l-22 0 23 25 c45 48 165 79 211 55z m7309 -25 c73
-37 83 -68 15 -48 -38 12 -40 11 -25 -18 7 -11 7 -19 1 -19 -5 0 -11 6 -14 13
-2 6 -7 10 -10 7 -3 -3 0 -37 8 -75 23 -106 18 -114 -20 -37 -46 91 -93 134
-143 130 -33 -3 -40 -8 -59 -48 -36 -73 -46 -139 -33 -212 27 -148 98 -262
317 -510 190 -215 241 -309 251 -460 4 -70 2 -81 -29 -148 -63 -138 -177 -210
-333 -210 -76 0 -86 3 -123 29 -23 16 -47 38 -54 49 -12 17 -14 5 -15 -92 -1
-127 -7 -144 -81 -227 -77 -87 -75 -82 -58 -122 8 -20 15 -51 15 -69 l1 -33
17 28 c20 32 56 36 72 8 18 -35 12 -76 -16 -102 l-26 -24 34 -5 c31 -5 33 -7
33 -47 1 -34 7 -49 34 -77 l34 -35 -22 -26 c-11 -15 -18 -32 -14 -39 3 -6 -7
1 -23 15 -16 14 -41 30 -56 37 -16 6 -30 22 -34 37 -4 18 -13 25 -30 25 -21 0
-24 4 -24 40 0 38 -12 52 -25 30 -13 -21 -36 -9 -42 21 -4 21 -10 28 -21 24
-21 -8 -42 13 -42 41 0 17 -6 24 -19 24 -11 0 -23 5 -26 10 -3 6 1 10 9 10 27
0 18 30 -14 48 -16 9 -30 22 -30 27 0 6 -12 17 -28 26 -56 32 -92 168 -92 351
0 37 -5 79 -10 94 l-10 26 -23 -24 c-12 -13 -33 -31 -46 -41 -14 -9 -23 -18
-20 -20 2 -1 23 -15 47 -30 26 -17 42 -35 42 -47 0 -43 -96 -13 -174 53 l-39
33 23 40 c17 29 21 48 16 67 -6 25 -10 27 -40 21 -34 -6 -35 -5 -63 54 -27 58
-29 61 -63 59 -31 -2 -37 2 -53 36 -12 24 -25 37 -38 37 -29 0 -59 18 -59 36
0 10 -7 13 -25 8 -31 -8 -58 22 -76 84 -13 46 -24 53 -32 21 -8 -31 -26 -15
-58 55 -24 52 -29 58 -35 39 -9 -33 -19 -29 -48 22 -15 25 -30 45 -34 45 -9 0
-9 -86 1 -96 4 -4 7 -12 7 -17 0 -22 -29 18 -56 76 -24 52 -29 58 -32 37 -7
-46 -32 -47 -46 -2 -6 18 -3 22 12 22 11 0 22 9 25 20 3 12 14 20 27 20 17 0
20 4 15 20 -5 16 -2 20 19 20 14 0 29 7 34 16 7 13 30 17 113 20 74 2 145 13
248 37 l144 34 45 -19 c56 -25 118 -20 142 12 18 24 15 29 52 -97 6 -20 14
-30 22 -27 14 6 28 -21 70 -132 28 -75 74 -136 64 -84 -3 14 -9 34 -13 45 -4
11 11 -8 33 -41 53 -81 82 -101 46 -32 l-16 30 32 -18 c45 -26 285 -276 316
-329 24 -41 29 -44 98 -61 132 -31 237 2 305 97 54 74 100 229 68 229 -15 0
-23 26 -42 143 -4 23 -11 37 -18 34 -15 -5 -84 84 -143 183 -55 92 -88 135
-80 105 3 -11 8 -33 11 -50 l6 -30 -36 40 c-77 84 -195 278 -195 321 0 7 -9
19 -19 26 -46 32 -46 201 0 324 20 54 61 100 78 90 6 -4 23 7 38 25 27 29 31
31 81 25 29 -4 75 -17 102 -31z m-5165 -105 c4 -6 -9 -10 -32 -10 -28 0 -34 3
-23 10 20 13 47 13 55 0z m2915 0 c11 -7 5 -10 -23 -10 -23 0 -36 4 -32 10 8
13 35 13 55 0z m-1925 -300 l0 -95 -202 -3 -203 -2 0 100 0 100 203 -2 202 -3
0 -95z m1285 0 l0 -100 -205 0 -205 0 0 100 0 100 205 0 205 0 0 -100z m-3676
-112 c10 -14 19 -19 22 -12 3 8 16 6 43 -6 20 -11 51 -22 67 -25 28 -6 28 -6
-6 12 l-35 18 125 6 c69 3 144 9 167 14 37 6 46 4 73 -18 39 -33 67 -42 85
-27 8 7 15 9 15 4 0 -5 11 -17 25 -26 26 -20 55 -14 55 10 0 13 4 12 23 -5 28
-26 86 -55 184 -93 42 -16 93 -41 114 -55 61 -40 109 -156 58 -140 -18 6 -19
5 -10 -13 6 -12 11 -23 11 -27 0 -11 -45 17 -61 38 -17 21 -17 20 -12 -6 7
-34 -17 -37 -41 -4 l-17 22 11 -23 c17 -35 54 -53 110 -54 44 -1 53 -5 65 -27
8 -14 46 -62 85 -106 45 -51 77 -99 90 -133 19 -49 19 -54 3 -93 -15 -39 -15
-42 6 -83 30 -62 25 -136 -9 -136 -4 0 -10 44 -13 98 -7 108 -24 166 -46 152
-12 -7 -10 -18 8 -62 24 -60 21 -106 -10 -134 -44 -40 -67 19 -36 91 17 40 19
52 9 79 -7 18 -12 42 -12 54 0 15 -6 22 -18 22 -29 0 -32 -10 -17 -47 17 -40
19 -81 5 -103 -8 -12 -13 -11 -34 9 -34 32 -38 60 -21 133 8 35 14 77 14 93
l0 30 -16 -32 c-9 -18 -23 -33 -31 -33 -12 0 -14 13 -10 68 4 51 3 62 -5 44
-14 -30 -41 -24 -45 10 -2 20 -7 25 -22 21 -15 -4 -21 3 -30 36 -8 30 -16 41
-30 41 -31 0 -122 44 -195 94 -72 49 -80 52 -91 35 -13 -22 -253 16 -421 66
-49 15 -53 18 -53 46 0 28 -1 29 -16 14 -21 -20 -31 -10 -42 40 -7 36 -11 40
-42 43 -19 2 -39 8 -45 13 -7 7 -3 8 10 3 17 -6 15 -2 -7 23 -30 31 -37 63
-14 63 7 0 21 -10 30 -22z m5706 10 c0 -7 -15 -27 -32 -46 -32 -33 -32 -34 -8
-27 19 5 21 4 10 -4 -8 -6 -30 -11 -47 -11 -30 0 -33 -3 -39 -39 -10 -60 -19
-69 -45 -46 l-22 20 7 -27 c8 -35 -1 -40 -154 -79 -162 -40 -285 -55 -316 -38
-21 11 -31 7 -96 -37 -81 -54 -138 -83 -182 -93 -22 -5 -32 -15 -41 -41 -9
-26 -18 -35 -34 -34 -17 0 -21 -5 -21 -28 0 -37 -24 -37 -44 0 l-15 27 4 -30
c13 -92 13 -104 1 -115 -10 -8 -16 -3 -26 20 -12 30 -30 41 -30 18 1 -7 7 -40
15 -73 21 -87 19 -118 -10 -149 -21 -23 -28 -26 -40 -16 -19 16 -19 48 0 94
17 41 13 56 -16 56 -15 0 -19 -7 -19 -31 0 -17 -5 -40 -11 -51 -9 -17 -7 -30
11 -68 35 -75 7 -138 -41 -94 -17 15 -20 28 -16 69 2 27 10 65 18 82 10 24 10
36 2 44 -20 20 -37 -32 -41 -131 -4 -121 -7 -128 -32 -105 -26 23 -25 54 2
117 18 43 20 55 10 82 -7 18 -12 40 -12 49 0 38 53 127 119 201 39 43 73 87
77 98 3 12 14 19 27 17 66 -5 99 2 122 26 14 13 25 30 25 37 0 7 -7 2 -16 -10
-21 -30 -48 -30 -38 1 l6 22 -24 -22 c-26 -24 -73 -34 -50 -11 18 18 14 30 -8
23 -26 -8 -26 13 -1 64 26 51 78 95 137 116 107 39 190 77 220 100 31 24 32
24 37 5 7 -27 19 -25 56 6 17 14 31 21 31 15 0 -20 37 -11 80 20 43 31 43 31
111 20 37 -6 110 -11 161 -11 l93 0 -30 -20 c-39 -26 -19 -26 41 0 26 12 53
19 60 16 7 -3 20 4 30 15 19 21 44 25 44 7z m-5825 -76 c7 -23 20 -53 28 -65
8 -12 11 -30 8 -40 -6 -16 -9 -15 -27 10 -34 45 -54 90 -54 118 0 43 31 27 45
-23z m5942 31 c7 -19 -38 -112 -68 -139 -18 -16 -19 -16 -19 9 0 14 4 28 10
32 5 3 17 30 26 60 18 55 39 71 51 38z m-5886 -56 c-1 -4 -1 -15 -1 -24 0 -15
-2 -16 -10 -3 -13 20 -13 43 1 38 6 -2 10 -7 10 -11z m5795 -24 c-11 -11 -19
6 -11 24 8 17 8 17 12 0 3 -10 2 -21 -1 -24z m-5722 1 c9 -4 19 -23 22 -46 4
-22 15 -45 25 -51 32 -20 22 -37 -20 -37 -56 0 -75 22 -67 78 8 61 12 67 40
56z m5674 -40 c17 -64 -1 -94 -58 -94 -29 0 -40 4 -40 15 0 9 7 18 15 21 8 3
17 25 21 49 6 40 11 47 44 54 3 0 11 -20 18 -45z m-3300 -141 l-3 -98 -200 0
-200 0 -3 98 -3 97 206 0 206 0 -3 -97z m1282 -3 l0 -100 -202 2 -203 3 -3 98
-3 97 206 0 205 0 0 -100z m-1290 -400 l0 -100 -205 0 -205 0 0 94 c0 66 4 96
13 99 6 2 99 5 205 6 l192 2 0 -101z m1288 -2 l3 -98 -206 0 -205 0 0 100 0
100 203 -3 202 -2 3 -97z m-2352 -166 c10 -49 -12 -39 -30 15 -20 59 -20 62 4
38 11 -11 22 -35 26 -53z m3061 12 c-14 -40 -34 -49 -30 -13 3 24 36 75 40 62
2 -5 -3 -27 -10 -49z m-3890 -39 c15 -19 28 -38 29 -42 0 -5 6 -27 13 -51 20
-71 41 -250 41 -359 0 -87 -2 -102 -15 -97 -19 8 -19 -10 0 -26 8 -7 12 -16 9
-21 -3 -5 -1 -9 5 -9 6 0 14 -12 17 -27 4 -16 15 -40 25 -55 19 -26 19 -26 -1
-21 -31 8 -24 -9 15 -35 48 -33 149 -73 192 -76 20 -1 38 -6 40 -12 2 -6 22
-9 45 -7 30 2 46 -2 58 -14 39 -43 32 -68 -24 -87 -50 -17 -83 -9 -101 23 -14
25 -14 25 -15 4 0 -27 -17 -29 -83 -9 -25 7 -57 11 -71 9 -35 -7 -46 22 -19
48 18 18 21 19 56 4 45 -18 57 -19 57 -2 0 26 -135 56 -143 33 -3 -7 -12 -4
-24 7 -11 9 -35 17 -55 17 -31 0 -44 7 -96 50 -16 14 -6 30 18 30 30 0 34 20
9 38 -13 9 -27 16 -31 15 -10 -4 -32 27 -24 34 4 4 11 1 16 -7 7 -10 10 -11
10 -2 0 6 11 12 24 12 21 0 27 -8 43 -57 14 -45 22 -58 38 -58 17 0 20 7 21
47 1 32 -2 46 -9 41 -6 -4 -8 0 -4 11 4 9 3 14 -2 11 -16 -9 -23 13 -11 34 7
14 7 22 -2 27 -7 4 -8 3 -4 -4 4 -7 2 -12 -4 -12 -6 0 -8 -5 -4 -11 4 -7 3
-10 -2 -7 -22 10 -81 36 -96 41 -27 9 -22 24 12 36 17 5 30 12 30 15 0 3 -11
22 -25 42 -14 21 -25 51 -25 70 0 18 -4 35 -9 38 -13 8 -42 -4 -35 -15 3 -5 0
-9 -5 -9 -6 0 -10 15 -9 33 2 21 -1 31 -9 30 -16 -4 -16 0 -2 31 7 14 16 23
21 19 6 -3 5 4 -2 16 -6 12 -15 19 -21 15 -6 -3 -7 5 -3 23 16 67 44 86 44 29
0 -29 3 -33 20 -29 12 3 20 0 20 -6 0 -7 -4 -9 -10 -6 -6 3 -7 -1 -4 -10 4 -8
1 -22 -6 -30 -13 -16 -9 -18 25 -16 19 2 19 1 -2 -17 -24 -21 -21 -32 8 -32
29 0 33 -20 10 -51 l-22 -29 24 0 c13 0 28 -5 35 -12 17 -17 16 32 -2 100 -8
28 -12 52 -10 52 3 0 -2 12 -9 28 -7 15 -21 61 -31 102 -26 109 -24 104 -41
86 -8 -8 -15 -19 -15 -25 0 -5 -5 -13 -12 -17 -8 -5 -9 2 -5 24 9 43 -10 41
-28 -1 -14 -35 -42 -64 -51 -54 -3 3 2 19 10 36 20 38 20 51 1 51 -21 0 -28
21 -16 53 9 23 17 26 63 30 122 8 115 9 145 -28z m4885 19 c3 -2 11 -17 16
-34 10 -27 9 -30 -14 -36 -28 -7 -28 -10 -9 -44 8 -14 14 -34 15 -44 0 -16 -4
-15 -26 9 -15 17 -23 34 -19 43 3 9 3 13 -1 9 -5 -4 -14 3 -21 15 -12 22 -12
22 -13 -11 l0 -34 -19 22 c-23 26 -41 20 -41 -12 0 -12 -14 -67 -31 -122 -17
-55 -33 -118 -35 -139 -3 -22 -10 -48 -15 -57 -6 -12 -5 -20 3 -25 6 -4 14 -2
16 4 5 16 62 15 62 -1 0 -14 -27 -57 -44 -70 -8 -6 -7 -10 3 -14 11 -5 11 -7
0 -15 -11 -8 -10 -9 4 -4 23 7 47 -3 47 -20 0 -7 -16 -16 -36 -20 -79 -15
-156 -136 -109 -170 16 -12 20 -11 31 5 7 10 18 39 25 65 11 45 13 47 46 44
42 -4 46 -19 10 -36 -30 -14 -60 -56 -32 -46 10 4 15 0 15 -12 0 -16 2 -16 10
-4 5 8 12 12 15 9 20 -21 -55 -79 -102 -79 -18 0 -38 -6 -46 -14 -10 -10 -25
-12 -54 -7 -28 5 -48 4 -64 -5 -13 -7 -32 -13 -41 -14 -23 0 -33 -19 -13 -26
9 -4 34 1 55 11 47 21 70 10 67 -33 -2 -20 -7 -26 -22 -24 -65 8 -84 9 -80 2
3 -4 -9 -10 -26 -14 -42 -8 -61 -8 -55 2 2 4 1 14 -5 22 -7 12 -9 12 -9 -3 0
-20 -55 -48 -79 -40 -57 18 -71 27 -71 46 0 34 39 67 80 67 20 0 41 5 48 12 8
8 15 8 28 -3 10 -8 15 -9 11 -3 -10 17 63 26 82 11 12 -9 13 -9 7 0 -4 8 5 20
26 32 88 52 107 66 118 90 12 26 12 26 -9 7 -27 -24 -37 -16 -13 10 10 11 16
26 14 33 -3 8 0 11 6 7 5 -3 10 0 9 7 -1 36 4 49 17 44 10 -4 13 -1 9 9 -3 7
0 14 7 14 6 0 8 5 5 11 -4 6 -13 8 -21 5 -11 -4 -14 10 -14 72 0 100 29 346
41 350 5 2 7 8 4 13 -10 16 15 87 42 119 l26 32 81 -7 c45 -4 84 -9 88 -11z
m-4272 -14 c0 -5 -2 -10 -4 -10 -2 0 -12 -3 -20 -6 -12 -5 -15 -2 -10 10 7 17
34 22 34 6z m3499 -16 c3 -16 1 -17 -13 -5 -19 16 -21 34 -3 29 6 -3 14 -13
16 -24z m-3459 -84 c0 -5 -5 -10 -11 -10 -5 0 -7 5 -4 10 3 6 8 10 11 10 2 0
4 -4 4 -10z m95 -40 c-3 -5 -11 -10 -16 -10 -6 0 -7 5 -4 10 3 6 11 10 16 10
6 0 7 -4 4 -10z m3210 0 c3 -5 2 -10 -4 -10 -5 0 -13 5 -16 10 -3 6 -2 10 4
10 5 0 13 -4 16 -10z m865 -70 c25 -48 25 -50 0 -50 -19 0 -20 -2 -5 -30 17
-33 20 -54 5 -45 -8 5 -15 -31 -11 -57 2 -14 -17 -8 -23 7 -8 23 -23 18 -30
-11 -7 -25 -8 -26 -26 -9 -29 26 -27 59 3 53 25 -5 34 17 10 26 -18 7 -16 26
3 26 15 0 14 10 -3 58 -3 8 4 12 22 12 26 0 27 2 22 35 -7 44 6 38 33 -15z
m-4915 -498 c0 -18 -20 -15 -23 4 -3 10 1 15 10 12 7 -3 13 -10 13 -16z m4905
8 c0 -12 -28 -25 -36 -17 -9 9 6 27 22 27 8 0 14 -5 14 -10z m-4252 -52 c7 -7
12 -22 12 -35 0 -13 6 -26 14 -29 20 -8 15 -64 -6 -78 -22 -13 -54 4 -52 28 1
9 -2 14 -6 11 -5 -3 -12 4 -15 15 -4 12 -17 26 -30 32 -26 12 -22 18 25 51 29
20 42 21 58 5z m3623 -4 c19 -9 29 -21 25 -29 -3 -9 0 -12 10 -8 26 10 14 -6
-16 -22 -16 -9 -30 -22 -30 -31 0 -8 -4 -12 -10 -9 -6 4 -7 -1 -3 -10 13 -35
-49 -48 -67 -15 -9 16 -7 28 4 52 9 17 16 38 16 48 0 17 18 40 32 40 5 0 23
-7 39 -16z m-3534 -44 c3 -16 9 -30 14 -30 5 0 9 -7 9 -15 0 -27 -27 -16 -33
14 -3 16 -13 36 -22 45 -15 15 -15 16 5 16 15 0 22 -8 27 -30z m3421 13 c-17
-20 -32 -54 -30 -65 1 -5 -5 -8 -13 -8 -20 0 -19 26 1 34 8 3 12 11 9 16 -9
14 13 40 33 40 13 0 13 -2 0 -17z m-3370 -122 c4 -27 -12 -21 -29 10 -9 18 -8
20 8 17 10 -2 19 -14 21 -27z m3322 20 c0 -12 -31 -43 -37 -37 -9 9 9 46 23
46 8 0 14 -4 14 -9z m-3380 -27 c0 -22 -2 -25 -15 -14 -8 7 -15 19 -15 26 0 8
7 14 15 14 10 0 15 -10 15 -26z m3430 12 c0 -16 -18 -31 -27 -22 -8 8 5 36 17
36 5 0 10 -6 10 -14z m-5253 -110 c-8 -20 -47 -21 -47 -1 0 18 32 37 44 25 5
-5 6 -16 3 -24z m7093 4 c0 -27 -16 -33 -35 -14 -12 12 -13 19 -5 29 15 18 40
8 40 -15z m-7290 1 c0 -11 -4 -31 -10 -45 -5 -14 -8 -26 -7 -26 1 0 24 7 51
15 l49 15 -6 -36 c-7 -41 -31 -82 -53 -91 -22 -8 -69 41 -83 86 -15 53 -14 72
7 87 26 20 52 17 52 -5z m7500 -1 c22 -22 20 -49 -8 -105 -35 -73 -69 -84
-100 -32 -23 38 -35 84 -25 90 5 3 26 -1 48 -8 21 -8 41 -13 42 -11 2 2 -1 15
-7 30 -5 15 -10 34 -10 42 0 21 37 17 60 -6z m-4827 -147 c162 -254 218 -345
214 -349 -2 -2 -486 -3 -1075 -2 l-1071 3 92 155 c51 85 116 197 146 248 l54
92 773 0 772 0 95 -147z m3757 70 c25 -40 93 -149 153 -243 59 -94 107 -175
107 -180 0 -7 -379 -10 -1070 -10 -722 0 -1070 3 -1070 10 0 6 11 27 24 48 23
36 186 311 240 405 l27 47 772 -2 771 -3 46 -72z m-6260 -24 c0 -15 -4 -30 -9
-33 -5 -3 -17 -35 -26 -70 -21 -77 -16 -118 21 -191 21 -43 24 -56 15 -74 -14
-25 -53 -28 -75 -6 -13 13 -15 13 -21 -5 -9 -29 -42 -25 -57 8 -7 15 -23 28
-36 30 -28 4 -30 42 -2 49 21 6 27 28 10 38 -16 10 -12 55 4 55 8 0 23 -12 33
-26 l19 -26 1 78 c0 65 5 89 28 137 15 31 31 60 36 63 5 3 9 15 9 26 0 21 0
21 25 -2 15 -14 25 -35 25 -51z m7195 -34 c25 -51 30 -72 30 -138 0 -42 3 -77
6 -77 3 0 11 11 17 25 12 25 36 33 47 15 3 -5 -1 -23 -10 -39 -19 -39 -19 -41
6 -41 16 0 20 -5 17 -27 -2 -20 -8 -27 -21 -25 -12 2 -21 -7 -28 -27 -12 -35
-42 -42 -58 -13 -8 14 -12 15 -22 5 -16 -16 -51 -17 -67 -1 -18 18 -15 42 9
83 13 22 23 60 26 98 5 52 1 74 -21 128 -33 82 -32 92 2 119 l27 22 5 -24 c3
-12 19 -50 35 -83z m-7350 -100 c0 -16 -5 -30 -12 -32 -14 -5 -28 40 -18 57
12 19 30 4 30 -25z m7445 0 c0 -24 -5 -35 -15 -35 -10 0 -15 11 -15 35 0 24 5
35 15 35 10 0 15 -11 15 -35z m-7204 -206 c3 -6 2 -15 -4 -21 -5 -5 -7 -29 -4
-54 l5 -44 -40 0 c-54 0 -69 17 -41 47 12 13 31 23 42 23 20 0 20 0 0 15 -19
15 -19 15 0 30 23 18 33 19 42 4z m98 -14 c20 -31 20 -54 0 -83 -18 -26 -37
-28 -58 -6 -20 20 -20 63 0 92 20 29 38 28 58 -3z m6790 3 c20 -28 21 -82 1
-98 -37 -31 -84 24 -64 76 18 48 40 55 63 22z m91 5 c16 -15 15 -17 -7 -29
l-23 -13 26 -1 c14 0 36 -11 48 -24 23 -24 23 -24 3 -35 -12 -6 -37 -11 -58
-11 l-37 0 7 40 c3 23 2 49 -3 59 -18 33 15 43 44 14z m-6785 -44 c16 -28 12
-39 -15 -39 -18 0 -26 7 -31 24 -3 14 -3 29 0 35 9 14 34 3 46 -20z m6588 -1
c-2 -28 -8 -34 -30 -36 -33 -4 -35 6 -7 42 28 35 41 33 37 -6z m-4833 -38
c-22 -11 -62 -40 -90 -64 l-50 -44 117 2 c103 1 120 -1 145 -20 98 -72 80
-249 -34 -335 -57 -43 -101 -59 -157 -59 -104 1 -177 34 -441 200 -296 187
-445 258 -650 311 l-110 28 655 1 655 0 -40 -20z m2395 -152 c51 -84 122 -199
157 -256 35 -56 63 -107 63 -112 0 -7 -377 -10 -1106 -10 -620 0 -1104 4
-1102 9 2 4 70 124 152 265 l149 256 796 0 796 0 95 -152z m-4125 122 c8 -13
-5 -13 -25 0 -13 8 -13 10 2 10 9 0 20 -4 23 -10z m6520 0 c-3 -5 -13 -10 -21
-10 -8 0 -12 5 -9 10 3 6 13 10 21 10 8 0 12 -4 9 -10z m-6708 -62 c-14 -9
-27 10 -20 29 4 11 8 10 18 -4 10 -13 10 -20 2 -25z m6803 22 c13 -25 3 -26
-45 -6 -44 19 -44 26 0 26 24 0 37 -6 45 -20z m-6760 0 c0 -5 -2 -10 -4 -10
-3 0 -8 5 -11 10 -3 6 -1 10 4 10 6 0 11 -4 11 -10z m6800 0 c0 -5 -2 -10 -4
-10 -3 0 -8 5 -11 10 -3 6 -1 10 4 10 6 0 11 -4 11 -10z"/>
<path d="M1786 5158 c-18 -29 -10 -79 15 -107 15 -16 17 -25 9 -40 -14 -28
-13 -64 6 -110 13 -32 22 -40 50 -45 29 -6 34 -11 35 -34 l0 -27 16 23 c21 30
34 28 31 -5 -2 -20 1 -28 13 -27 14 1 14 -3 2 -39 -8 -22 -11 -47 -7 -56 4
-11 11 -1 24 34 9 28 20 57 24 66 6 13 2 16 -18 14 -14 -2 -26 1 -26 7 0 6 7
8 15 4 26 -10 16 14 -20 48 -23 22 -45 33 -66 34 -42 1 -49 14 -49 92 0 54 -4
69 -21 83 -17 15 -20 27 -17 63 2 24 2 44 1 44 -1 0 -9 -10 -17 -22z"/>
<path d="M2138 4936 c-34 -18 -108 -78 -108 -88 0 -16 27 -7 46 13 10 12 40
34 66 49 27 14 45 30 41 33 -9 10 -14 9 -45 -7z"/>
<path d="M2005 4750 c-17 -34 -18 -40 -6 -40 5 0 18 16 30 35 16 28 17 35 6
35 -8 0 -21 -13 -30 -30z"/>
<path d="M7443 5135 c2 -35 -3 -50 -17 -60 -15 -11 -19 -28 -20 -84 -1 -79
-11 -95 -58 -95 -26 1 -40 -7 -66 -37 -19 -21 -31 -43 -27 -50 6 -8 10 -7 17
2 7 11 8 9 6 -5 -2 -10 3 -21 10 -23 8 -3 12 6 12 26 0 32 16 42 26 16 8 -20
26 -19 22 2 -2 11 7 19 29 25 46 12 67 56 60 128 -4 45 -1 60 14 79 22 27 24
78 4 104 -12 17 -13 14 -12 -28z"/>
<path d="M7056 4942 c-3 -5 12 -17 33 -26 21 -10 53 -31 72 -47 37 -31 72 -41
49 -14 -19 23 -102 82 -127 89 -12 4 -24 3 -27 -2z"/>
<path d="M7129 4845 c21 -19 42 -35 47 -35 4 0 -7 16 -26 35 -19 19 -40 35
-47 35 -7 0 4 -16 26 -35z"/>
<path d="M7238 4805 c-4 -4 2 -21 13 -38 10 -18 19 -45 19 -61 0 -22 3 -27 11
-19 15 15 4 75 -19 103 -9 12 -20 18 -24 15z"/>
<path d="M7202 4773 c24 -49 32 -63 40 -63 13 0 9 24 -8 48 -14 20 -41 32 -32
15z"/>
<path d="M3080 4536 c0 -2 7 -7 16 -10 8 -3 12 -2 9 4 -6 10 -25 14 -25 6z"/>
<path d="M3075 4479 c-4 -6 -4 -13 -1 -16 3 -4 6 -1 6 6 0 7 5 9 12 5 7 -4 8
-3 4 4 -9 15 -13 15 -21 1z"/>
<path d="M2957 4353 c-9 -10 -33 -27 -54 -37 -21 -11 -52 -30 -70 -43 -17 -13
-35 -23 -38 -23 -3 0 -21 -11 -39 -25 -18 -14 -38 -25 -44 -25 -22 0 -12 -27
16 -40 15 -8 31 -16 36 -19 5 -2 6 1 2 7 -4 7 -3 12 2 12 5 0 38 25 72 56 35
31 68 53 76 50 8 -3 13 -2 11 3 -1 4 13 20 31 35 17 15 32 36 32 47 0 24 -12
24 -33 2z"/>
<path d="M1491 3076 c-9 -10 -9 -31 -1 -80 6 -37 8 -72 4 -78 -4 -6 1 -6 15 1
20 11 21 9 21 -34 0 -32 3 -44 11 -39 9 5 10 -1 5 -22 -4 -16 -12 -54 -17 -84
-5 -30 -16 -88 -25 -128 -9 -40 -14 -75 -11 -78 3 -3 18 16 33 41 19 33 29 67
33 114 4 40 14 79 25 96 11 16 15 30 9 32 -5 2 -8 27 -5 60 4 48 2 55 -11 50
-12 -5 -14 1 -9 35 4 35 3 40 -10 35 -12 -4 -19 5 -27 38 -12 50 -24 61 -40
41z"/>
<path d="M7720 3054 c-6 -14 -10 -34 -10 -46 0 -14 -5 -18 -15 -14 -12 4 -15
-3 -15 -29 0 -24 -5 -35 -15 -35 -12 0 -14 -13 -12 -67 2 -38 8 -77 14 -88 6
-11 13 -48 17 -82 8 -73 26 -121 55 -147 24 -22 24 -22 11 24 -6 19 -19 82
-29 140 -11 58 -22 113 -26 123 -5 12 -3 17 6 15 10 -2 15 9 17 35 3 37 16 49
25 25 3 -7 6 5 6 27 1 22 4 64 7 93 6 44 4 52 -10 52 -9 0 -21 -12 -26 -26z"/>
<path d="M6850 2260 c-9 -6 -10 -10 -3 -10 6 0 15 5 18 10 8 12 4 12 -15 0z"/>
<path d="M7081 2774 c0 -11 3 -14 6 -6 3 7 2 16 -1 19 -3 4 -6 -2 -5 -13z"/>
<path d="M6389 2147 c6 -8 7 -18 3 -22 -4 -5 -1 -5 6 -1 10 6 10 11 1 22 -6 8
-14 14 -16 14 -3 0 0 -6 6 -13z"/>
<path d="M2280 1752 c0 -133 8 -153 66 -172 28 -10 46 -10 75 -1 61 18 69 38
69 173 l0 118 -30 0 -30 0 0 -108 c0 -113 -6 -132 -45 -132 -39 0 -45 19 -45
132 l0 108 -30 0 -30 0 0 -118z"/>
<path d="M2510 1725 l0 -146 28 3 c27 3 27 3 30 93 l3 90 47 -90 c43 -83 50
-90 80 -93 l33 -3 -3 143 -3 143 -27 3 -27 3 -3 -90 -3 -91 -45 87 c-41 81
-48 88 -77 91 l-33 3 0 -146z"/>
<path d="M2740 1725 l0 -145 30 0 30 0 0 120 0 120 35 0 34 0 3 -117 3 -118
27 -3 27 -3 3 118 3 118 40 3 40 2 33 -65 c24 -50 32 -79 32 -120 0 -54 0 -55
30 -55 30 0 30 1 30 55 0 46 8 71 45 146 l46 90 -38 -3 c-35 -3 -39 -6 -58
-55 -11 -29 -22 -53 -25 -53 -3 0 -16 25 -29 55 l-23 55 -159 0 -159 0 0 -145z"/>
<path d="M5724 1827 c-2 -7 -3 -65 -2 -128 l3 -114 71 -3 c65 -3 74 0 102 23
20 17 34 41 40 68 10 41 10 41 11 -25 1 -65 2 -68 26 -68 l24 0 3 118 3 117
40 -117 c37 -112 41 -118 66 -118 30 0 36 11 88 173 13 37 25 67 27 67 3 0 4
-53 3 -117 l-1 -118 95 -3 c93 -3 96 -2 100 20 l4 23 2 -22 c1 -19 7 -23 31
-23 29 0 30 1 30 51 l0 50 43 -3 c42 -3 42 -3 47 -48 5 -42 7 -45 36 -48 l32
-3 -5 48 c-3 26 -9 54 -13 62 -5 9 -1 25 7 38 l16 24 11 -23 c8 -15 30 -28 71
-40 74 -23 87 -34 61 -54 -27 -19 -52 -18 -76 6 -22 22 -70 27 -70 7 0 -26 32
-57 70 -67 74 -20 140 16 140 76 0 49 -30 70 -125 86 -12 2 -20 11 -20 23 0
26 55 34 75 11 17 -21 60 -21 60 -1 0 9 -11 27 -25 40 -35 36 -115 36 -151 0
-24 -24 -25 -24 -44 -5 -23 23 -68 32 -140 28 l-55 -3 0 -103 0 -102 -77 0
-78 0 0 30 0 30 65 0 c63 0 65 1 65 25 0 24 -2 25 -66 25 -62 0 -65 1 -62 23
3 20 9 22 71 25 64 3 67 4 67 28 l0 25 -127 -3 -126 -3 -26 -89 c-28 -97 -27
-98 -62 22 l-21 72 -54 0 -54 0 -1 -62 0 -63 -15 48 c-12 40 -21 51 -49 63
-44 18 -154 19 -161 1z m138 -54 c12 -11 18 -30 18 -61 0 -56 -21 -82 -67 -82
l-33 0 0 80 0 80 32 0 c17 0 40 -7 50 -17z m718 2 c22 -27 4 -45 -45 -45 -43
0 -45 1 -45 30 0 28 2 30 39 30 22 0 44 -6 51 -15z"/>
<path d="M6870 1710 l0 -130 25 0 c24 0 24 1 27 103 l3 102 33 3 32 3 0 -105
0 -106 30 0 30 0 0 105 0 105 39 0 c36 0 41 -4 67 -47 18 -31 30 -68 34 -103
5 -51 7 -55 33 -58 26 -3 27 -2 27 44 0 35 10 65 40 121 22 42 40 79 40 84 0
5 -13 9 -29 9 -26 0 -33 -7 -54 -52 l-24 -53 -27 53 -26 52 -150 0 -150 0 0
-130z"/>
<path d="M4500 1199 l0 -140 28 3 27 3 3 138 3 137 -31 0 -30 0 0 -141z"/>
<path d="M4572 1203 l3 -138 25 0 c24 0 25 2 30 85 l5 84 45 -84 c38 -72 49
-85 73 -88 l27 -3 0 140 0 141 -25 0 c-24 0 -24 -2 -27 -87 l-3 -88 -45 88
c-42 83 -46 87 -78 87 l-33 0 3 -137z"/>
<path d="M3584 5505 c-6 -14 34 -80 43 -71 3 2 -5 18 -17 34 -12 17 -19 35
-16 41 4 6 5 11 1 11 -3 0 -8 -7 -11 -15z"/>
<path d="M5604 5500 c0 -13 4 -16 10 -10 7 7 7 13 0 20 -6 6 -10 3 -10 -10z"/>
<path d="M6265 4430 c-4 -6 -11 -7 -17 -4 -7 4 -8 2 -4 -5 6 -9 11 -9 22 0 14
11 18 19 10 19 -3 0 -8 -5 -11 -10z"/>
<path d="M6250 4357 c0 -23 29 -54 74 -81 24 -14 63 -44 87 -67 23 -22 53 -45
66 -50 37 -14 83 17 53 36 -5 3 -7 13 -4 23 5 13 4 14 -4 3 -8 -11 -18 -8 -53
17 -24 17 -66 43 -94 58 -27 14 -64 37 -82 50 -36 27 -43 29 -43 11z"/>
<path d="M10045 4104 c-284 -46 -435 -214 -452 -504 -9 -169 35 -305 131 -400
145 -144 381 -184 689 -114 l67 16 0 274 0 274 -205 0 -205 0 0 -80 0 -80 110
0 110 0 0 -134 0 -135 -56 -7 c-153 -19 -283 25 -354 120 -47 62 -67 115 -76
199 -17 162 59 310 192 378 66 33 72 34 183 34 96 0 128 -4 184 -24 38 -12 70
-21 71 -20 2 2 6 41 10 86 l6 81 -72 17 c-72 17 -275 28 -333 19z"/>
<path d="M15872 4100 c-266 -48 -412 -218 -428 -500 -10 -169 33 -304 128
-399 145 -144 384 -184 688 -115 l70 16 0 274 0 274 -205 0 -205 0 0 -80 0
-80 110 0 110 0 0 -130 c0 -115 -2 -131 -17 -138 -10 -4 -63 -7 -118 -7 -93 0
-105 2 -167 33 -74 36 -114 79 -153 164 -60 132 -35 314 61 427 55 66 168 111
279 111 62 0 180 -21 228 -41 15 -7 29 -10 31 -8 2 2 6 41 9 86 l5 82 -71 16
c-86 20 -281 28 -355 15z"/>
<path d="M18995 4100 c-111 -23 -221 -86 -279 -162 -150 -197 -137 -563 26
-743 57 -62 123 -99 224 -125 129 -33 278 -20 390 35 108 53 201 178 235 315
22 89 18 271 -9 357 -43 138 -141 248 -262 294 -97 37 -228 48 -325 29z m206
-165 c66 -23 114 -67 148 -138 76 -154 60 -369 -35 -494 -81 -106 -268 -123
-376 -33 -84 69 -132 241 -110 388 15 95 60 191 110 232 68 56 176 74 263 45z"/>
<path d="M22650 4103 c-285 -45 -436 -208 -457 -493 -19 -273 112 -470 358
-536 80 -21 268 -24 362 -5 l67 13 0 53 c0 29 -3 66 -6 82 l-6 30 -46 -15
c-30 -9 -88 -15 -157 -16 -99 -1 -116 2 -166 25 -107 51 -168 136 -191 267
-30 175 49 342 192 411 48 23 67 26 155 25 77 0 112 -5 153 -21 28 -12 54 -18
56 -15 2 4 7 41 11 83 l7 77 -34 11 c-79 25 -220 37 -298 24z"/>
<path d="M10987 4078 c-3 -7 -58 -148 -122 -313 -193 -492 -265 -680 -265
-687 0 -5 46 -8 103 -8 l103 0 44 115 44 115 207 0 208 0 29 -77 c16 -43 36
-95 43 -115 l13 -38 114 0 c103 0 113 2 108 18 -4 9 -93 238 -199 507 l-193
490 -116 3 c-87 2 -117 -1 -121 -10z m192 -410 l70 -208 -151 0 c-139 0 -150
1 -143 18 4 9 34 94 67 187 76 213 78 219 82 214 2 -2 36 -97 75 -211z"/>
<path d="M11742 3708 c4 -433 7 -450 81 -534 53 -60 107 -89 199 -108 130 -27
279 -15 375 31 67 31 130 105 153 179 19 61 20 93 20 440 l0 374 -99 0 -100 0
-3 -357 c-3 -340 -4 -360 -24 -403 -48 -101 -142 -141 -256 -110 -55 16 -94
54 -119 118 -22 54 -23 73 -27 405 l-4 347 -100 0 -99 0 3 -382z"/>
<path d="M12700 4010 l0 -80 150 0 150 0 0 -430 0 -430 100 0 100 0 0 430 0
430 145 0 145 0 0 80 0 80 -395 0 -395 0 0 -80z"/>
<path d="M13620 3580 l0 -510 303 2 302 3 0 75 0 75 -202 3 -203 2 0 145 0
145 185 0 185 0 0 80 0 80 -185 0 -185 0 0 125 0 125 200 0 200 0 0 80 0 80
-300 0 -300 0 0 -510z"/>
<path d="M14430 3580 l0 -510 95 0 95 0 0 382 c0 222 4 378 9 373 5 -6 60
-109 122 -230 62 -121 148 -287 190 -370 l78 -150 125 -3 126 -3 0 511 0 510
-95 0 -95 0 0 -382 c0 -222 -4 -378 -9 -372 -5 5 -71 131 -147 279 -76 149
-161 315 -190 370 l-53 100 -125 3 -126 3 0 -511z"/>
<path d="M16940 3581 l0 -511 100 0 100 0 0 195 0 195 78 0 c254 1 387 100
400 297 10 163 -61 264 -220 310 -36 10 -118 17 -255 20 l-203 5 0 -511z m361
338 c21 -7 52 -27 70 -45 26 -27 33 -43 36 -86 8 -109 -47 -159 -184 -166
l-83 -5 0 157 0 156 61 0 c34 0 79 -5 100 -11z"/>
<path d="M17750 3580 l0 -510 100 0 100 0 0 210 0 210 60 0 c110 0 119 -11
205 -235 32 -82 61 -158 66 -167 8 -16 25 -18 119 -18 61 0 110 2 110 5 0 12
-173 420 -187 442 -9 13 -30 31 -47 40 l-31 16 43 12 c99 30 162 120 162 231
0 155 -81 238 -257 264 -37 5 -152 10 -255 10 l-188 0 0 -510z m427 326 c88
-45 82 -184 -9 -232 -22 -12 -64 -19 -125 -22 l-93 -4 0 142 0 143 98 -5 c63
-3 108 -11 129 -22z"/>
<path d="M19700 4082 c0 -9 72 -224 205 -607 53 -154 106 -308 118 -342 l21
-63 126 0 126 0 172 510 172 511 -101 -3 -101 -3 -18 -50 c-10 -27 -60 -178
-110 -335 -50 -157 -101 -314 -113 -350 l-21 -65 -131 400 -131 400 -107 3
c-59 1 -107 -1 -107 -6z"/>
<path d="M20760 3580 l0 -510 100 0 100 0 0 510 0 510 -100 0 -100 0 0 -510z"/>
<path d="M21180 3580 l0 -510 95 0 95 0 0 382 c0 218 4 378 9 373 5 -6 95
-178 201 -382 l192 -373 124 0 124 0 0 510 0 510 -95 0 -95 0 0 -382 c0 -225
-4 -378 -9 -372 -5 5 -71 131 -147 279 -76 149 -161 315 -190 370 l-53 100
-125 3 -126 3 0 -511z"/>
<path d="M23140 3580 l0 -510 303 2 302 3 0 75 0 75 -202 3 -203 2 0 145 0
145 185 0 185 0 0 80 0 80 -185 0 -185 0 0 125 0 125 200 0 200 0 0 80 0 80
-300 0 -300 0 0 -510z"/>
<path d="M9590 2870 l0 -40 7098 0 7098 0 2 40 3 40 -7101 0 -7100 0 0 -40z"/>
<path d="M12549 1651 c-126 -25 -210 -147 -195 -281 18 -154 141 -244 307
-225 l59 7 0 35 c0 29 -3 34 -17 28 -38 -14 -112 -17 -147 -5 -97 32 -150 132
-126 237 6 29 23 67 38 85 51 61 145 84 217 54 l35 -15 0 34 c0 31 -4 35 -37
44 -42 12 -80 12 -134 2z"/>
<path d="M13144 1646 c-62 -20 -102 -54 -132 -116 -57 -115 -24 -286 66 -345
85 -54 197 -56 277 -3 132 88 135 346 5 432 -66 43 -142 55 -216 32z m140 -60
c111 -46 139 -246 47 -338 -95 -94 -242 -43 -271 95 -35 169 86 301 224 243z"/>
<path d="M14199 1651 c-69 -23 -99 -61 -99 -128 1 -65 29 -97 126 -146 68 -34
84 -52 84 -91 0 -64 -72 -101 -152 -77 -45 14 -43 15 -52 -21 -5 -24 -3 -29
21 -35 49 -14 146 -8 181 10 65 35 92 129 58 196 -15 28 -74 73 -114 85 -12 4
-36 19 -52 33 -64 53 -19 130 70 120 25 -2 52 -8 61 -11 12 -5 18 0 23 20 4
15 3 30 -1 35 -12 12 -125 19 -154 10z"/>
<path d="M14625 1649 c-106 -25 -170 -119 -170 -249 0 -62 5 -85 29 -133 34
-70 79 -103 162 -119 111 -20 204 25 256 126 31 58 32 182 2 246 -29 62 -79
108 -138 125 -55 17 -82 17 -141 4z m129 -63 c111 -46 139 -246 47 -338 -95
-95 -242 -42 -271 97 -35 167 87 298 224 241z"/>
<path d="M18345 1651 c-58 -15 -116 -52 -145 -92 -61 -84 -62 -229 -2 -314 52
-75 172 -118 273 -98 41 8 44 11 47 42 3 29 1 33 -15 27 -38 -15 -112 -18
-147 -6 -97 32 -150 132 -126 237 6 29 23 67 38 85 51 61 145 84 217 54 l35
-15 0 33 c0 22 -6 36 -17 40 -28 11 -127 16 -158 7z"/>
<path d="M9630 1401 l0 -251 35 0 35 0 0 110 0 110 45 0 c59 0 72 -15 120
-128 l39 -92 38 0 c21 0 38 2 38 4 0 12 -100 210 -115 226 -17 19 -17 20 7 29
40 15 68 58 68 105 0 97 -47 128 -202 134 l-108 5 0 -252z m200 176 c30 -15
45 -54 36 -91 -8 -34 -57 -56 -121 -56 l-45 0 0 80 0 80 53 0 c28 0 63 -6 77
-13z"/>
<path d="M10070 1400 l0 -250 141 0 140 0 -3 28 -3 27 -102 3 -103 3 0 84 0
85 95 0 95 0 0 30 0 30 -95 0 -95 0 0 75 0 74 103 3 102 3 3 28 3 27 -140 0
-141 0 0 -250z"/>
<path d="M10460 1401 l0 -251 35 0 35 0 0 100 0 100 48 0 c66 0 118 17 155 50
30 27 32 32 32 98 0 112 -41 143 -202 150 l-103 5 0 -252z m185 175 c38 -16
55 -42 55 -83 -1 -54 -42 -83 -119 -83 l-51 0 0 90 0 90 40 0 c22 0 56 -6 75
-14z"/>
<path d="M10872 1463 c3 -171 5 -192 25 -229 33 -62 83 -89 164 -88 82 0 124
23 159 85 24 42 25 53 28 232 l4 187 -36 0 -36 0 0 -166 c0 -192 -9 -238 -54
-265 -67 -41 -156 -11 -175 58 -6 21 -11 113 -11 206 l0 167 -36 0 -36 0 4
-187z"/>
<path d="M11380 1401 l0 -251 74 0 c172 0 241 37 241 129 0 60 -27 102 -74
115 l-32 9 38 21 c52 29 73 87 52 142 -23 59 -60 76 -190 82 l-109 5 0 -252z
m218 166 c30 -27 29 -71 -3 -102 -20 -21 -34 -25 -85 -25 l-60 0 0 74 0 75 38
3 c55 4 84 -2 110 -25z m1 -211 c28 -26 35 -69 17 -104 -17 -34 -39 -42 -113
-42 l-53 0 0 86 0 86 64 -4 c44 -3 71 -10 85 -22z"/>
<path d="M11810 1400 l0 -250 140 0 140 0 0 30 0 30 -105 0 -105 0 0 220 0
220 -35 0 -35 0 0 -250z"/>
<path d="M12170 1400 l0 -250 35 0 35 0 0 250 0 250 -35 0 -35 0 0 -250z"/>
<path d="M13560 1400 l0 -250 35 0 35 0 0 115 0 114 93 3 92 3 3 28 3 27 -95
0 -96 0 0 75 0 75 95 0 95 0 0 30 0 30 -130 0 -130 0 0 -250z"/>
<path d="M15042 1457 c3 -192 3 -194 30 -235 39 -57 78 -76 160 -76 54 0 73 5
105 26 69 45 78 76 81 291 l4 187 -36 0 -36 0 0 -167 c0 -93 -5 -185 -11 -206
-24 -87 -154 -105 -206 -28 -15 22 -18 54 -21 214 l-4 187 -35 0 -35 0 4 -193z"/>
<path d="M15500 1620 l0 -30 75 0 75 0 0 -220 0 -220 35 0 35 0 0 220 0 220
81 0 80 0 -3 28 -3 27 -187 3 -188 2 0 -30z"/>
<path d="M15950 1400 l0 -250 35 0 35 0 0 115 0 115 120 0 120 0 0 -115 0
-115 35 0 35 0 0 250 0 250 -35 0 -35 0 0 -105 0 -105 -120 0 -120 0 0 105 0
105 -35 0 -35 0 0 -250z"/>
<path d="M16722 1407 c-56 -133 -102 -245 -102 -249 0 -5 15 -8 33 -8 31 0 33
3 55 65 l24 65 126 0 127 0 23 -65 c23 -63 25 -65 59 -65 29 0 34 3 31 18 -3
9 -49 122 -104 250 l-98 232 -36 0 -35 0 -103 -243z m186 58 c23 -55 42 -106
44 -113 2 -10 -19 -13 -92 -13 -52 -1 -95 3 -95 8 0 20 89 233 95 226 3 -4 25
-53 48 -108z"/>
<path d="M17180 1400 l0 -250 35 0 35 0 0 115 0 115 95 0 95 0 0 30 0 30 -95
0 -95 0 0 75 0 75 95 0 95 0 0 30 0 30 -130 0 -130 0 0 -250z"/>
<path d="M17530 1401 l0 -251 35 0 35 0 0 110 0 110 45 0 c59 0 72 -15 120
-128 l39 -92 38 0 c21 0 38 2 38 4 0 19 -105 218 -121 229 -19 14 -19 15 11
27 47 19 70 55 70 109 0 92 -47 122 -202 129 l-108 5 0 -252z m200 176 c30
-15 45 -54 36 -91 -8 -34 -57 -56 -121 -56 l-45 0 0 80 0 80 53 0 c28 0 63 -6
77 -13z"/>
<path d="M17970 1400 l0 -250 35 0 35 0 0 250 0 250 -35 0 -35 0 0 -250z"/>
<path d="M18767 1633 c-3 -10 -50 -123 -105 -250 l-100 -233 37 0 c36 0 37 1
59 65 l24 65 126 0 127 0 23 -65 c24 -64 24 -65 62 -65 l38 0 -106 250 -105
250 -37 0 c-27 0 -39 -5 -43 -17z m91 -168 c23 -55 42 -106 44 -113 2 -10 -21
-13 -95 -15 -53 -1 -97 0 -97 3 0 18 95 239 100 233 4 -5 25 -53 48 -108z"/>
<path d="M8872 1355 c0 -16 2 -22 5 -12 2 9 2 23 0 30 -3 6 -5 -1 -5 -18z"/>
<path d="M332 1310 c0 -19 2 -27 5 -17 2 9 2 25 0 35 -3 9 -5 1 -5 -18z"/>
<path d="M8882 1290 c0 -19 2 -27 5 -17 2 9 2 25 0 35 -3 9 -5 1 -5 -18z"/>
</g>
</svg>
