<?xml version="1.0" standalone="no"?>
<!DOCTYPE svg PUBLIC "-//W3C//DTD SVG 20010904//EN"
 "http://www.w3.org/TR/2001/REC-SVG-20010904/DTD/svg10.dtd">
<svg version="1.0" xmlns="http://www.w3.org/2000/svg"
 width="3840.000000pt" height="2160.000000pt" viewBox="0 0 3840.000000 2160.000000"
 preserveAspectRatio="xMidYMid meet">

<g transform="translate(0.000000,2160.000000) scale(0.100000,-0.100000)"
fill="#000000" stroke="none">
<path d="M18990 21547 c-3 -2 -90 -7 -195 -11 -1391 -47 -2865 -472 -4095
-1181 -757 -436 -1523 -1053 -2032 -1636 -679 -776 -1308 -1757 -1703 -2654
-613 -1392 -856 -2882 -730 -4475 31 -389 83 -788 110 -839 18 -37 24 -41
1280 -937 1534 -1096 1625 -1164 1640 -1233 3 -14 55 -467 115 -1006 144
-1287 248 -2210 256 -2262 6 -39 8 -41 47 -48 23 -3 1063 -9 2311 -11 l2270
-6 115 -96 c305 -252 545 -352 847 -352 321 0 608 117 929 378 63 52 109 82
125 83 200 5 487 8 1695 14 781 4 1461 9 1510 10 50 1 315 4 590 6 275 2 557
5 626 7 l125 3 32 267 c17 147 99 890 182 1652 83 762 153 1399 156 1415 6 32
-7 22 1819 1381 1025 762 1069 798 1085 869 5 22 18 128 29 235 69 662 74
1427 15 2080 -165 1822 -822 3502 -1968 5028 -252 336 -776 872 -1194 1220
-541 451 -1185 868 -1827 1182 -1071 524 -2197 821 -3405 900 -169 11 -752 24
-760 17z m-485 -1601 c44 -3 115 -8 158 -12 l77 -7 1 -76 c1 -42 3 -92 4 -111
1 -19 5 -118 9 -220 4 -102 9 -216 11 -255 2 -38 7 -137 10 -220 3 -82 8 -190
10 -240 2 -49 7 -151 10 -225 9 -212 15 -356 20 -470 3 -58 7 -161 10 -230 3
-69 7 -173 10 -233 12 -252 15 -329 20 -447 3 -69 7 -170 10 -225 4 -93 7
-156 20 -465 3 -66 7 -174 10 -240 3 -66 7 -174 10 -240 17 -405 28 -661 40
-900 2 -52 7 -149 10 -215 11 -266 23 -536 30 -705 3 -69 7 -174 10 -235 9
-201 15 -349 20 -480 3 -71 7 -173 10 -225 2 -52 7 -158 10 -235 3 -77 8 -178
10 -225 2 -47 7 -150 10 -230 3 -80 7 -183 10 -230 2 -47 7 -150 10 -230 3
-80 7 -183 10 -230 2 -47 7 -150 10 -230 3 -80 8 -190 10 -245 3 -55 7 -163
10 -240 3 -77 7 -183 10 -235 2 -52 7 -160 10 -240 17 -448 29 -554 61 -567
25 -9 53 28 63 82 14 78 25 234 36 520 12 325 15 407 20 530 3 72 7 198 10
280 5 143 9 271 20 560 6 156 13 354 20 565 3 85 8 211 10 280 3 69 7 202 10
295 3 94 8 238 10 320 3 83 7 218 10 300 19 587 31 942 50 1420 2 61 7 189 10
285 3 96 7 231 10 300 3 69 7 197 10 285 3 88 7 223 10 300 3 77 7 212 10 300
3 88 7 219 10 290 3 72 7 202 10 290 5 154 10 292 20 570 3 72 7 200 10 285 5
167 13 384 20 575 3 66 7 199 10 295 3 96 7 227 10 290 3 63 7 176 10 250 8
201 15 284 26 295 19 19 768 11 899 -9 57 -9 117 -17 160 -22 212 -23 566
-126 755 -219 108 -53 309 -178 333 -208 10 -12 -9 -126 -93 -578 -142 -757
-702 -3732 -770 -4089 -30 -157 -180 -955 -334 -1775 -154 -819 -326 -1726
-381 -2015 -107 -557 -120 -643 -101 -678 12 -22 45 -29 67 -14 32 20 33 26
273 877 272 967 2166 7656 2198 7765 25 81 32 95 48 92 29 -3 477 -228 634
-317 116 -66 337 -207 351 -224 3 -4 23 -18 45 -33 22 -14 49 -33 60 -42 11
-9 58 -46 105 -83 125 -99 143 -116 276 -248 128 -127 254 -287 299 -378 l26
-55 -34 -84 c-93 -223 -349 -777 -2087 -4503 -1383 -2966 -1370 -2938 -1405
-3073 -18 -68 -11 -98 23 -110 35 -12 65 0 89 35 44 63 336 573 1773 3103
2009 3538 2169 3819 2197 3863 l24 38 38 -30 c48 -38 291 -302 415 -451 255
-305 488 -703 585 -999 46 -138 86 -286 96 -353 6 -42 4 -47 -56 -129 -55 -74
-442 -569 -648 -829 -70 -89 -117 -149 -356 -450 -127 -161 -364 -459 -814
-1025 -129 -163 -246 -310 -538 -677 -73 -93 -194 -244 -268 -338 -74 -93
-196 -246 -270 -340 -74 -93 -196 -246 -270 -340 -74 -93 -196 -246 -270 -340
-74 -93 -197 -248 -272 -342 -75 -95 -187 -236 -248 -313 -190 -239 -319 -407
-364 -473 -49 -72 -68 -122 -46 -122 35 0 200 164 1975 1960 1140 1154 2530
2547 2578 2583 l36 28 23 -38 c33 -53 115 -267 162 -420 64 -208 108 -445 126
-678 8 -101 8 -495 0 -600 -22 -299 -58 -542 -93 -645 -18 -54 -21 -57 -189
-180 -133 -97 -2548 -1870 -2611 -1916 -10 -7 -18 -53 -28 -155 -16 -160 -122
-1191 -129 -1254 -3 -22 -16 -152 -30 -290 -14 -137 -28 -268 -30 -290 -5 -38
-30 -288 -41 -405 -13 -141 -26 -236 -32 -242 -9 -9 -59 -17 -147 -23 -117 -7
-1222 -21 -2445 -30 l-835 -7 -100 -97 c-177 -173 -264 -240 -391 -304 -120
-60 -171 -71 -334 -71 -135 1 -152 3 -240 32 -153 51 -242 112 -418 288 l-153
154 -1728 0 -1728 0 -6 38 c-4 20 -43 357 -87 747 -44 391 -109 953 -143 1250
l-63 540 -135 105 c-75 58 -196 150 -268 205 -73 55 -185 141 -250 190 -65 50
-169 128 -230 175 -62 47 -165 126 -230 175 -65 50 -169 128 -230 175 -62 47
-165 126 -230 175 -65 50 -169 128 -231 175 -61 47 -147 112 -189 145 -43 33
-129 98 -190 145 -62 47 -148 112 -191 145 -43 33 -111 85 -150 115 -247 188
-317 249 -339 295 -70 149 -106 453 -106 900 0 269 9 429 30 562 44 269 210
870 256 926 18 22 18 22 651 -613 348 -349 770 -775 938 -946 168 -170 429
-436 580 -590 151 -153 484 -493 740 -754 753 -768 1640 -1653 1708 -1703 60
-44 65 -46 94 -34 18 7 33 18 35 24 4 10 -97 152 -201 283 -227 285 -527 658
-661 821 -88 107 -176 215 -195 239 -19 24 -91 111 -158 194 -68 83 -133 163
-145 178 -160 195 -393 481 -562 688 -115 141 -226 276 -245 300 -19 24 -89
109 -155 190 -66 81 -136 166 -155 190 -19 24 -60 73 -90 110 -30 37 -71 86
-90 110 -19 24 -89 109 -155 190 -66 81 -136 166 -155 190 -19 24 -89 109
-155 190 -66 81 -136 166 -155 190 -19 24 -100 123 -180 221 -80 97 -179 218
-220 269 -41 50 -85 104 -97 118 -47 57 -450 551 -480 588 -17 21 -81 100
-142 174 -63 77 -109 141 -106 150 2 8 7 44 10 80 33 364 222 825 495 1211
206 289 526 655 566 647 20 -4 -7 42 1917 -3248 1794 -3069 1741 -2978 1976
-3369 184 -309 250 -395 292 -389 36 5 45 45 25 107 -43 132 -35 116 -1956
4121 -513 1070 -1103 2300 -1311 2735 -209 434 -379 795 -379 801 0 6 28 51
62 100 254 368 622 717 982 931 281 168 699 353 796 353 33 0 26 17 120 -305
94 -319 1089 -3797 1466 -5125 527 -1852 802 -2797 921 -3165 40 -124 61 -176
79 -193 47 -42 85 -22 86 45 0 61 -177 963 -1022 5183 -731 3650 -797 3985
-782 3997 134 104 433 268 618 341 104 40 261 85 389 111 138 27 169 32 290
46 39 4 79 9 90 11 11 2 83 7 160 10 77 4 141 7 142 8 3 3 137 -2 238 -8z"/>
<path d="M12269 3626 c-2 -2 -202 -6 -444 -10 -476 -6 -560 -13 -734 -57 -231
-58 -403 -170 -502 -326 -89 -142 -103 -233 -104 -683 0 -371 4 -404 67 -522
58 -109 141 -184 285 -256 183 -93 320 -121 653 -137 287 -13 345 -15 550 -20
118 -3 276 -7 350 -10 74 -3 214 -7 310 -10 465 -16 592 -39 677 -123 64 -65
93 -132 103 -244 24 -249 -53 -430 -216 -509 -61 -29 -218 -37 -669 -35 -333
2 -353 4 -405 24 -154 60 -229 178 -248 392 l-7 85 -777 3 -776 2 -8 -66 c-12
-117 30 -377 86 -526 43 -115 163 -255 290 -337 149 -96 324 -134 755 -163
216 -14 1616 -18 2030 -5 487 15 798 39 931 72 294 74 461 263 536 606 41 188
26 654 -28 864 -43 165 -167 304 -367 410 -153 81 -377 145 -557 159 -41 4
-100 8 -130 11 -30 2 -122 7 -205 10 -141 4 -240 8 -645 20 -429 13 -536 17
-686 25 -259 16 -309 32 -396 129 -63 70 -80 135 -82 316 -2 205 19 252 137
310 145 70 298 90 712 90 236 0 304 -3 365 -17 117 -26 189 -57 238 -101 72
-67 83 -99 112 -322 6 -45 17 -86 26 -95 13 -13 103 -15 702 -15 378 0 700 4
715 8 46 13 59 60 59 212 0 151 -23 314 -58 427 -23 73 -32 87 -97 152 -108
109 -269 184 -509 239 -91 20 -117 21 -1064 24 -534 1 -973 1 -975 -1z"/>
<path d="M15842 3572 l-182 -2 2 -1738 3 -1737 65 -9 c85 -11 1030 -13 1141
-3 47 5 91 12 98 17 20 12 30 360 30 1041 l1 566 44 41 c131 121 426 192 683
164 198 -21 300 -59 392 -147 l59 -56 5 -777 c2 -439 9 -790 14 -807 8 -25 17
-31 54 -38 57 -12 1100 -11 1159 0 40 8 45 12 53 43 14 55 21 1482 8 1727 -8
179 -13 221 -31 260 -62 140 -210 259 -424 342 -219 84 -411 111 -839 118
-450 8 -716 -17 -942 -87 -100 -32 -206 -43 -224 -25 -5 6 -11 232 -15 520 -3
281 -8 523 -12 538 -12 52 -14 52 -504 52 -250 0 -537 -1 -638 -3z"/>
<path d="M24798 3571 c-27 -4 -53 -12 -59 -18 -20 -20 -28 -561 -28 -1833 0
-1276 6 -1601 28 -1623 9 -9 163 -13 656 -14 l645 -3 0 1745 0 1745 -22 0
c-13 0 -282 2 -598 5 -316 2 -596 1 -622 -4z"/>
<path d="M26982 3572 l-182 -2 2 -1738 3 -1737 55 -8 c74 -11 1042 -14 1153
-4 82 8 89 11 98 35 25 64 36 1677 19 2731 -10 643 -13 706 -39 717 -16 8
-759 12 -1109 6z"/>
<path d="M21285 2613 c-670 -24 -1026 -210 -1144 -597 -109 -354 -106 -1087 5
-1436 89 -283 369 -467 764 -504 109 -10 756 -21 1230 -21 951 1 1218 10 1335
46 305 92 480 259 559 531 34 119 43 210 22 231 -43 42 -101 45 -993 39 l-321
-2 -22 -68 c-26 -80 -64 -142 -122 -199 -97 -93 -178 -108 -548 -98 -268 7
-365 17 -417 41 -57 28 -128 117 -148 187 -24 83 -31 249 -13 302 25 75 -73
70 1325 70 1182 0 1253 1 1270 18 15 15 18 43 21 217 4 198 -9 461 -29 595
-33 214 -213 419 -452 515 -182 73 -454 109 -967 129 -185 7 -1183 10 -1355 4z
m1080 -523 c91 -14 162 -49 236 -117 97 -90 141 -182 119 -249 -24 -71 -3 -69
-590 -69 -289 0 -537 3 -552 8 -38 10 -51 40 -52 117 0 48 6 77 22 112 41 84
150 164 259 189 113 25 410 30 558 9z"/>
</g>
</svg>
