<?xml version="1.0" standalone="no"?>
<!DOCTYPE svg PUBLIC "-//W3C//DTD SVG 20010904//EN"
 "http://www.w3.org/TR/2001/REC-SVG-20010904/DTD/svg10.dtd">
<svg version="1.0" xmlns="http://www.w3.org/2000/svg"
 width="2048.000000pt" height="2048.000000pt" viewBox="0 0 2048.000000 2048.000000"
 preserveAspectRatio="xMidYMid meet">

<g transform="translate(0.000000,2048.000000) scale(0.100000,-0.100000)"
fill="#000000" stroke="none">
<path d="M9052 19703 c-71 -103 -234 -420 -322 -627 -83 -196 -160 -458 -160
-545 0 -71 78 -218 136 -256 22 -14 27 -14 55 1 34 17 129 83 129 90 0 2 -14
25 -30 51 -43 68 -75 175 -74 253 0 121 75 231 197 289 208 99 418 52 510
-116 34 -63 57 -152 57 -221 0 -53 0 -54 28 -48 15 2 66 10 114 16 l87 12 8
36 c12 63 7 205 -8 239 -8 17 -59 80 -115 140 -56 59 -135 146 -176 193 -331
378 -383 442 -393 490 -8 37 -18 38 -43 3z"/>
<path d="M9820 18521 c-124 -32 -268 -70 -320 -84 -52 -14 -243 -64 -425 -111
-452 -117 -557 -144 -561 -149 -7 -7 -17 -147 -10 -147 4 0 132 31 284 70 152
38 287 71 300 72 21 3 26 -9 71 -142 27 -80 52 -153 56 -162 5 -14 -19 -34
-127 -104 -73 -48 -196 -128 -273 -178 -77 -51 -163 -106 -192 -124 -28 -18
-56 -38 -61 -45 -11 -13 47 -219 60 -215 8 3 132 95 513 378 275 204 599 445
874 649 122 90 220 168 219 172 -8 22 -155 178 -168 178 -8 0 -116 -26 -240
-58z m129 -138 c-2 -18 -591 -444 -600 -434 -13 14 -101 272 -96 284 6 17 134
50 412 107 231 48 286 56 284 43z"/>
<path d="M10205 18128 c-71 -44 -150 -93 -175 -108 -25 -15 -73 -45 -107 -66
-35 -22 -167 -104 -295 -183 -128 -80 -314 -195 -413 -256 -99 -62 -267 -165
-374 -230 -106 -66 -195 -124 -198 -130 -5 -15 69 -187 83 -192 12 -4 288 164
802 489 50 32 97 58 103 58 18 0 78 -68 85 -96 12 -49 -37 -94 -271 -248 -77
-51 -214 -137 -305 -191 -91 -55 -196 -118 -235 -141 -42 -25 -69 -48 -69 -57
2 -21 214 -287 228 -287 6 0 34 16 61 36 51 37 226 153 536 357 97 63 188 130
202 149 59 78 72 200 36 338 -11 44 -19 91 -17 104 3 24 4 24 53 -20 91 -81
205 -163 244 -175 76 -23 246 35 288 98 86 126 97 162 91 296 -4 83 -12 123
-42 212 -49 144 -137 319 -162 322 -11 2 -77 -34 -149 -79z m215 -225 c31 -80
35 -97 34 -188 0 -85 -4 -107 -25 -150 -60 -122 -214 -167 -314 -91 -29 23
-102 113 -158 196 -27 39 -21 54 36 90 28 19 81 53 117 76 173 111 245 154
260 154 10 0 27 -29 50 -87z"/>
<path d="M12325 17864 c-33 -8 -91 -21 -130 -30 -308 -70 -660 -196 -873 -311
-257 -140 -450 -328 -506 -495 -24 -73 -38 -176 -31 -237 14 -123 72 -269 158
-395 l40 -60 13 30 c112 250 205 435 280 556 186 300 369 491 552 574 74 34
97 30 39 -7 -71 -44 -208 -180 -287 -283 -142 -187 -273 -432 -379 -708 -93
-242 -96 -254 -76 -284 23 -36 59 -47 155 -47 71 -1 96 4 153 27 200 83 377
266 493 510 24 50 74 183 112 296 117 345 235 617 348 796 l53 84 -27 -1 c-15
-1 -54 -7 -87 -15z"/>
<path d="M10365 17069 c-151 -87 -229 -131 -440 -254 -49 -28 -187 -107 -305
-175 -118 -67 -240 -137 -270 -155 -30 -17 -83 -47 -117 -65 -34 -19 -60 -37
-57 -42 11 -17 232 -196 279 -225 87 -54 167 -91 262 -119 95 -28 118 -27 91
3 -9 10 -64 90 -123 178 -60 88 -116 171 -127 184 -10 13 -18 30 -18 38 0 17
220 162 257 168 26 5 34 -3 106 -105 43 -60 114 -164 158 -230 45 -66 85 -120
89 -120 4 0 17 16 29 36 25 42 28 33 -79 194 -146 218 -181 284 -165 309 10
17 209 131 228 131 50 0 72 -26 112 -132 21 -57 45 -119 53 -138 l14 -34 13
24 c18 35 94 242 117 320 24 82 67 300 59 300 -4 0 -78 -41 -166 -91z"/>
<path d="M7422 17074 c-127 -17 -259 -46 -370 -80 l-85 -26 40 -22 c106 -60
280 -193 473 -361 209 -182 316 -229 520 -228 125 0 210 19 328 74 l84 39 -21
29 c-28 39 -111 109 -184 156 -169 107 -511 201 -808 221 -163 11 -116 34 70
34 126 0 297 -27 478 -75 177 -47 281 -88 397 -159 98 -59 146 -46 146 39 0
30 -9 46 -52 92 -215 227 -588 325 -1016 267z"/>
<path d="M13480 16790 c-80 -4 -148 -8 -153 -9 -4 0 -6 -450 -5 -998 l3 -998
98 -8 c54 -5 101 -7 103 -4 3 3 1 67 -5 144 -14 175 -48 649 -56 771 l-7 92
110 0 c125 0 179 13 247 60 107 73 149 207 149 475 0 139 -4 188 -22 269 -26
119 -47 155 -106 184 -55 28 -146 33 -356 22z m182 -140 c96 -29 123 -63 137
-169 24 -183 5 -410 -41 -493 -35 -63 -54 -70 -183 -63 -60 3 -113 9 -117 13
-4 4 -8 161 -9 350 -2 399 -6 382 91 382 32 0 87 -9 122 -20z"/>
<path d="M14007 16783 c-4 -3 -7 -458 -7 -1011 l0 -1005 97 7 c54 4 100 9 103
11 3 2 2 46 -2 97 -4 51 -18 242 -32 423 -14 182 -28 358 -32 391 l-5 62 118
4 c98 3 125 8 161 26 126 67 165 148 193 409 16 146 -7 405 -46 534 -9 27 -79
40 -273 49 -229 11 -267 12 -275 3z m347 -166 c72 -33 84 -60 97 -220 16 -200
-12 -403 -64 -461 -16 -19 -34 -26 -67 -28 -71 -3 -164 2 -176 10 -6 4 -14 30
-17 57 -5 38 -10 541 -8 636 2 46 140 49 235 6z"/>
<path d="M13160 16764 c-52 -7 -99 -13 -104 -13 -6 -1 -7 -248 -3 -618 4 -376
3 -657 -3 -718 -17 -171 -53 -240 -121 -233 -47 4 -69 53 -81 177 -10 93 -5
696 9 1148 l6 211 -129 -37 -129 -37 0 -239 c0 -498 15 -1275 26 -1325 25
-118 115 -180 339 -231 151 -34 189 -33 231 7 60 57 63 81 66 499 8 1059 8
1425 -2 1424 -5 -1 -53 -7 -105 -15z"/>
<path d="M14786 16692 c-36 -69 -77 -272 -108 -527 -19 -161 -16 -672 5 -841
38 -293 102 -437 188 -418 61 14 221 70 284 100 56 26 75 41 92 71 45 82 48
124 45 688 -3 659 -16 800 -80 874 -26 29 -33 31 -187 52 -88 12 -174 24 -192
26 -27 4 -34 1 -47 -25z m264 -331 c62 -45 86 -128 101 -355 9 -127 9 -216 0
-355 -16 -269 -43 -354 -125 -395 -32 -16 -44 -17 -76 -7 -96 28 -123 116
-135 436 -12 307 14 568 63 643 40 61 113 75 172 33z"/>
<path d="M12395 16574 c-242 -97 -373 -179 -545 -340 -133 -126 -234 -274
-216 -320 16 -42 225 -71 437 -59 149 8 212 0 246 -30 22 -18 26 -30 26 -77
-1 -99 -48 -148 -140 -148 -49 0 -86 27 -153 108 -29 35 -57 61 -63 59 -7 -3
-86 -35 -177 -72 -90 -36 -168 -69 -173 -72 -13 -8 188 -208 298 -298 120 -98
184 -131 271 -140 77 -7 187 7 238 32 120 57 190 408 113 565 -52 106 -103
133 -309 163 -124 19 -209 46 -238 78 -26 28 -26 90 0 161 37 97 98 138 209
138 80 0 142 -23 175 -65 l24 -30 46 193 c26 106 45 194 44 195 -2 2 -52 -17
-113 -41z"/>
<path d="M15420 16529 c0 -46 -5 -363 -11 -704 -6 -341 -9 -637 -7 -657 l3
-37 81 45 81 46 -1 311 -1 311 65 12 c54 10 71 9 100 -2 89 -37 120 -108 160
-365 7 -42 16 -82 19 -88 8 -12 26 -6 142 47 l46 21 -38 113 c-21 62 -56 174
-77 248 -49 167 -54 172 -182 178 -49 3 -90 8 -90 13 0 5 25 20 55 34 63 27
158 113 185 165 24 48 35 163 21 217 -22 81 -84 107 -340 143 -80 11 -161 23
-178 26 l-33 6 0 -83z m230 -54 c209 -29 220 -36 220 -135 0 -90 -37 -164 -98
-198 -43 -24 -211 -64 -224 -53 -6 5 -17 106 -41 369 -4 38 -7 38 143 17z"/>
<path d="M16088 16294 l3 -164 27 0 c38 0 186 -22 194 -29 4 -3 3 -94 -2 -201
-6 -107 -11 -229 -13 -272 l-3 -76 45 18 c25 10 76 30 114 46 l67 28 0 214 0
214 38 -6 c20 -3 141 -18 267 -32 127 -14 309 -34 405 -45 165 -19 177 -19
230 -3 30 10 59 20 63 24 4 4 -70 30 -165 60 -95 29 -207 63 -248 76 -133 41
-532 162 -635 193 -94 27 -358 108 -380 115 -6 2 -9 -54 -7 -160z"/>
<path d="M6592 16080 c-33 -5 -63 -16 -76 -30 -30 -27 -62 -138 -78 -265 -18
-145 -18 -1281 0 -1425 18 -140 43 -232 77 -276 45 -59 155 -99 306 -110 68
-5 91 -3 116 9 77 40 89 198 49 627 -14 151 -30 349 -36 440 -13 221 -23 315
-64 591 -20 129 -38 272 -42 319 -10 115 -25 130 -126 129 -40 -1 -97 -5 -126
-9z m101 -252 c56 -75 90 -255 109 -576 18 -307 -7 -689 -57 -881 -61 -234
-162 -205 -215 62 -72 358 -62 1022 20 1299 36 121 95 160 143 96z"/>
<path d="M6911 16066 c-9 -10 -9 -42 -2 -122 6 -60 22 -253 36 -429 14 -176
29 -374 35 -440 5 -66 14 -176 20 -245 18 -230 30 -384 40 -500 5 -63 12 -155
15 -205 10 -144 22 -160 132 -176 54 -8 69 -6 94 8 15 9 32 24 36 32 4 9 10
288 13 621 3 333 8 610 12 616 4 5 12 107 19 225 15 281 23 322 33 159 25
-456 28 -493 101 -1288 27 -293 32 -311 99 -337 37 -15 45 -15 155 11 71 18
124 36 140 50 33 28 33 5 -19 584 -5 58 -16 186 -25 285 -18 213 -51 603 -65
765 -6 63 -12 144 -15 180 -12 141 -9 135 -77 154 -34 9 -64 13 -69 9 -4 -4
19 -172 52 -373 52 -325 99 -668 130 -950 5 -52 14 -131 20 -175 5 -43 12
-143 16 -221 l6 -142 -26 -26 c-19 -19 -36 -26 -66 -26 -91 0 -113 79 -141
490 -6 85 -17 223 -25 305 -13 133 -46 558 -76 975 -5 80 -12 150 -14 156 -4
14 -145 47 -182 42 -17 -2 -32 -12 -39 -26 -12 -25 -27 -802 -28 -1492 -1
-458 -2 -465 -66 -465 -45 0 -58 26 -70 142 -13 124 -30 924 -30 1391 l0 394
-29 29 c-25 24 -38 29 -79 29 -30 0 -54 -5 -61 -14z"/>
<path d="M6075 15956 c-177 -59 -281 -106 -289 -133 -3 -10 -5 -173 -4 -363 1
-335 -11 -560 -42 -794 -10 -76 -10 -80 12 -104 48 -53 200 -172 210 -166 11
7 8 149 -9 518 l-6 138 76 -3 c90 -5 121 -23 155 -90 12 -25 30 -83 38 -130
21 -110 13 -220 -26 -369 -17 -63 -33 -133 -36 -155 l-5 -40 143 -76 c79 -42
144 -76 145 -75 1 1 -16 105 -37 231 -21 127 -48 295 -60 375 -34 236 -53 298
-110 364 l-30 34 33 25 c48 37 95 123 111 203 18 89 41 505 32 568 -10 66 -41
96 -98 96 -25 0 -111 -23 -203 -54z m82 -243 c53 -34 79 -82 95 -171 20 -118
-12 -251 -74 -309 -35 -33 -72 -43 -154 -43 l-74 0 0 269 c0 206 3 271 13 274
6 3 44 6 82 6 61 1 77 -3 112 -26z"/>
<path d="M7823 15972 c-10 -6 -8 -25 8 -82 11 -41 26 -78 32 -82 7 -4 38 -10
69 -14 33 -4 63 -13 72 -23 13 -14 14 -117 6 -841 -5 -485 -5 -829 0 -834 10
-10 111 32 143 59 19 16 19 27 13 238 -3 122 -11 411 -16 642 -6 231 -12 482
-14 557 -5 164 -4 166 81 149 78 -15 96 -14 121 9 18 17 22 32 22 85 0 35 -5
67 -10 70 -9 6 -476 75 -505 75 -5 0 -16 -4 -22 -8z"/>
<path d="M10625 15848 c2 -26 15 -120 27 -210 19 -131 23 -203 21 -368 -2
-342 -32 -645 -71 -728 -27 -57 -50 -50 -90 28 -18 36 -57 95 -88 132 -78 94
-364 372 -529 514 -211 181 -535 437 -544 429 -2 -2 14 -26 36 -52 91 -110
258 -340 375 -518 613 -926 833 -1751 668 -2507 -61 -282 -227 -632 -411 -871
-320 -412 -819 -790 -1344 -1016 -140 -61 -160 -71 -133 -71 32 0 176 -54 270
-101 172 -86 337 -196 533 -353 106 -85 340 -293 389 -345 l29 -31 101 103
c351 357 987 709 1786 988 158 55 164 58 135 69 -16 6 -74 33 -128 61 -405
206 -637 490 -717 879 -31 146 -31 395 -1 563 78 442 269 895 604 1432 217
348 519 754 780 1048 38 42 66 77 61 77 -4 0 -32 -19 -63 -42 -141 -105 -283
-231 -631 -559 -208 -196 -241 -222 -254 -209 -18 18 -9 261 19 525 25 232 69
579 81 640 4 17 4 28 1 25 -8 -8 -202 -811 -237 -983 -39 -188 -74 -247 -147
-247 -61 0 -158 94 -205 198 -24 53 -69 262 -193 882 -113 570 -136 680 -130
618z"/>
<path d="M8452 15858 c-6 -8 -25 -148 -42 -314 -35 -341 -81 -787 -109 -1044
-17 -164 -18 -177 -2 -205 42 -75 167 -17 186 86 3 19 14 152 24 295 15 210
22 269 37 300 l19 39 101 3 c136 4 137 3 128 -132 -4 -55 -12 -157 -19 -226
-13 -134 -6 -180 25 -180 10 0 62 34 116 76 55 42 146 108 204 146 118 79 181
140 215 211 32 67 21 104 -77 262 -140 227 -353 545 -364 545 -27 0 -42 -38
-48 -120 -4 -47 -17 -164 -29 -260 -26 -211 -25 -210 -130 -210 -87 0 -117 16
-117 61 0 17 11 101 25 187 35 216 53 329 60 382 4 25 9 53 11 62 6 20 -35 33
-136 43 -51 5 -69 4 -78 -7z"/>
<path d="M5540 15756 c-69 -28 -161 -71 -205 -95 -155 -85 -191 -105 -265
-149 -118 -70 -471 -270 -590 -334 -196 -106 -240 -130 -244 -137 -3 -4 63
-15 147 -25 196 -22 436 -61 557 -91 52 -13 160 -51 240 -85 80 -34 186 -78
235 -97 50 -18 122 -48 162 -65 40 -17 78 -28 85 -25 13 4 20 45 88 479 20
130 15 173 -25 223 -21 28 -28 29 -119 35 -56 3 -101 1 -107 -4 -5 -6 -9 -29
-9 -53 l0 -43 63 0 c70 0 110 -16 116 -45 2 -11 -2 -56 -8 -100 -6 -44 -16
-120 -22 -170 -13 -111 -33 -147 -94 -171 -75 -28 -137 -6 -229 84 -75 73 -97
133 -104 276 -8 173 29 287 123 382 77 78 154 98 279 73 31 -7 58 -10 60 -8 2
2 6 48 10 102 6 77 5 97 -6 96 -7 -1 -69 -24 -138 -53z"/>
<path d="M12506 14794 c-19 -19 -20 -45 -3 -66 14 -18 82 -61 215 -137 160
-91 301 -206 279 -227 -3 -3 -25 7 -49 24 -178 122 -493 301 -506 287 -4 -3 1
-35 11 -71 59 -227 316 -397 723 -479 67 -14 129 -25 138 -25 39 0 7 131 -60
242 -103 170 -349 342 -629 439 -99 34 -99 34 -119 13z"/>
<path d="M9449 14136 c-113 -46 -186 -100 -313 -230 -172 -177 -445 -578 -566
-834 -27 -58 -35 -63 -44 -29 -23 88 10 249 81 392 96 191 282 442 466 632 34
34 59 64 56 67 -2 2 -58 -28 -124 -68 -566 -339 -895 -691 -997 -1063 -29
-108 -32 -326 -4 -428 30 -111 131 -315 157 -315 5 0 18 17 28 39 31 59 117
129 248 200 312 171 642 378 818 516 197 153 330 339 386 538 20 68 23 105 23
217 -1 143 -20 240 -66 342 -20 44 -24 48 -57 48 -20 0 -61 -11 -92 -24z"/>
<path d="M7210 13799 c-247 -47 -449 -286 -485 -571 l-7 -55 69 33 c56 28 86
36 172 44 57 5 114 7 127 4 42 -11 154 16 233 55 88 45 181 117 264 204 66 70
87 105 82 133 -2 10 -4 23 -4 28 -2 22 -194 -20 -434 -95 -71 -22 -133 -39
-140 -36 -12 4 87 62 166 97 60 27 222 67 302 76 93 10 93 18 3 47 -136 45
-244 56 -348 36z"/>
<path d="M4453 12089 c-42 -12 -70 -50 -79 -104 -14 -98 42 -291 137 -474 27
-52 48 -95 46 -97 -1 -2 -25 24 -52 58 -56 70 -176 178 -261 235 -159 108
-340 161 -401 118 -106 -74 82 -466 433 -905 227 -284 569 -606 1094 -1029
516 -416 1158 -833 1705 -1109 160 -81 160 -81 203 -146 155 -236 192 -524
106 -834 -42 -154 -27 -217 64 -269 276 -157 821 -502 1349 -855 123 -81 225
-148 228 -148 15 0 232 488 315 705 306 805 401 1509 279 2071 -98 453 -330
765 -709 954 -114 57 -347 190 -533 304 -166 102 -222 138 -557 356 -602 393
-1049 595 -1281 578 -52 -4 -66 -9 -86 -32 -79 -93 51 -293 352 -541 55 -45
192 -152 305 -237 408 -307 471 -359 611 -498 85 -83 136 -144 185 -220 80
-124 149 -266 164 -338 26 -121 -39 -174 -187 -152 -37 6 -138 19 -223 30
-428 55 -813 149 -1045 255 -38 18 -80 35 -92 39 -20 6 -61 75 -283 476 -119
215 -281 532 -438 860 -98 205 -118 252 -193 455 -63 171 -112 270 -176 355
-53 71 -111 116 -160 126 -28 5 -37 2 -62 -25 -112 -120 -25 -618 191 -1080
26 -57 47 -106 45 -107 -4 -5 -149 216 -250 381 -93 152 -147 258 -172 335
-60 188 -235 391 -410 475 -80 38 -117 46 -162 34z"/>
<path d="M14566 11598 c-96 -50 -211 -197 -329 -418 -66 -123 -155 -269 -227
-370 -37 -52 -101 -145 -142 -205 -41 -61 -126 -180 -188 -265 -62 -85 -129
-177 -149 -205 -20 -27 -46 -61 -58 -75 -13 -14 -23 -28 -23 -32 0 -3 -6 -13
-13 -20 -7 -7 -35 -42 -62 -78 -27 -36 -57 -74 -66 -85 -59 -71 -181 -230
-195 -253 -4 -6 -200 -52 -284 -67 -268 -46 -599 -62 -985 -47 -262 10 -312
20 -334 68 -29 65 -3 145 94 279 183 254 351 379 870 650 531 277 706 386 831
514 58 59 104 139 104 182 0 117 -242 135 -604 43 -245 -61 -526 -166 -915
-339 -449 -200 -731 -314 -1019 -414 -253 -88 -372 -152 -539 -293 -191 -161
-362 -417 -447 -668 -182 -539 -164 -1282 50 -2145 61 -243 167 -605 178 -605
2 0 125 54 272 121 584 263 1074 473 1333 570 157 59 183 74 207 121 19 37 20
80 5 218 -33 304 53 587 235 776 44 46 59 54 139 78 308 91 748 260 1144 438
639 288 1497 796 1900 1126 138 113 417 391 515 514 193 242 251 409 155 448
-41 17 -175 7 -264 -20 -130 -40 -309 -144 -445 -258 l-44 -37 43 60 c167 231
247 413 227 517 -24 128 -191 124 -404 -8 -109 -69 -237 -200 -286 -294 -48
-92 -81 -142 -164 -245 -74 -93 -329 -381 -362 -410 -27 -23 -26 -22 61 110
228 343 375 729 356 935 -8 87 -26 110 -85 110 -27 -1 -63 -9 -86 -22z"/>
<path d="M10105 5929 c-229 -34 -398 -157 -454 -332 -59 -186 -23 -347 106
-476 79 -79 151 -121 333 -196 207 -85 281 -137 334 -235 23 -43 27 -61 27
-130 0 -203 -141 -320 -386 -320 -124 0 -252 33 -411 106 -11 5 -64 -144 -64
-179 0 -18 91 -59 190 -86 174 -47 342 -50 499 -10 288 73 450 299 411 576
-13 99 -52 182 -119 255 -69 75 -168 136 -332 204 -296 122 -373 197 -373 359
0 111 54 193 164 244 51 24 65 26 190 26 124 -1 142 -3 220 -31 47 -17 92 -34
101 -38 14 -6 22 9 48 86 37 110 39 105 -79 142 -127 40 -278 53 -405 35z"/>
<path d="M11670 5933 c-238 -26 -467 -167 -595 -368 -120 -188 -177 -447 -155
-703 36 -400 248 -686 585 -788 80 -24 106 -27 235 -27 169 -1 254 18 385 82
244 121 408 366 454 678 16 103 14 316 -4 414 -46 264 -190 490 -388 608 -139
82 -342 123 -517 104z m228 -207 c192 -51 333 -208 409 -453 25 -83 27 -99 27
-278 0 -219 -14 -289 -84 -432 -53 -107 -113 -179 -197 -236 -99 -67 -176 -90
-298 -90 -178 0 -310 64 -420 204 -107 136 -155 286 -162 509 -5 141 -3 165
21 269 62 274 203 445 416 506 61 18 223 18 288 1z"/>
<path d="M15435 5920 c-395 -45 -696 -289 -800 -647 -97 -332 -20 -723 185
-945 111 -120 248 -201 411 -242 234 -58 544 -39 822 50 l47 16 -2 440 -3 441
-299 -2 -299 -1 -1 -90 -1 -90 185 -2 185 -3 3 -276 2 -277 -67 -18 c-97 -27
-391 -27 -478 0 -162 50 -301 155 -378 286 -131 225 -140 566 -21 809 44 89
159 211 246 260 77 43 181 77 280 92 147 21 379 -4 500 -55 l37 -16 10 38 c6
20 17 60 26 87 8 28 15 55 15 62 0 14 -101 48 -200 67 -99 19 -305 27 -405 16z"/>
<path d="M4560 5810 l0 -100 280 0 280 0 0 -820 0 -820 120 0 120 0 0 820 0
820 280 0 280 0 0 100 0 100 -680 0 -680 0 0 -100z"/>
<path d="M6130 4990 l0 -921 118 3 117 3 3 428 2 427 445 0 445 0 0 -430 0
-431 118 3 117 3 0 915 0 915 -117 3 -118 3 0 -386 0 -385 -445 0 -445 0 -2
383 -3 382 -117 3 -118 3 0 -921z"/>
<path d="M7910 5303 c0 -644 4 -715 49 -846 72 -208 207 -337 411 -393 90 -25
309 -25 400 0 265 72 423 257 474 555 13 80 16 190 16 693 l0 599 -117 -3
-118 -3 -6 -640 c-5 -573 -7 -646 -23 -700 -56 -189 -172 -299 -345 -325 -274
-43 -472 140 -497 460 -3 41 -6 329 -7 640 l-2 565 -117 3 -118 3 0 -608z"/>
<path d="M12907 5903 c-4 -3 -7 -417 -7 -920 l0 -913 115 0 115 0 0 463 c0
254 -5 599 -10 766 -6 167 -8 306 -6 309 3 2 30 -46 60 -107 73 -144 191 -346
389 -661 88 -140 232 -371 321 -512 l161 -258 117 0 118 0 0 920 0 920 -111 0
-111 0 5 -652 c4 -359 11 -700 16 -758 5 -58 7 -107 6 -109 -2 -2 -27 43 -55
100 -95 189 -290 515 -544 907 -23 37 -83 130 -131 207 -49 77 -113 177 -142
223 l-53 82 -123 0 c-68 0 -127 -3 -130 -7z"/>
<path d="M9252 3600 c-125 -19 -207 -160 -168 -292 27 -93 91 -146 188 -154
56 -5 69 -2 118 23 36 18 65 43 85 71 28 41 30 50 30 132 0 83 -2 91 -31 132
-50 68 -133 102 -222 88z m91 -24 c67 -29 107 -104 107 -205 0 -79 -17 -130
-55 -168 -29 -29 -40 -33 -84 -33 -67 0 -104 20 -135 73 -37 63 -51 139 -37
202 26 117 111 171 204 131z"/>
<path d="M11619 3600 c-66 -11 -113 -36 -153 -80 -89 -98 -64 -269 48 -335 49
-28 136 -40 206 -28 41 7 47 12 69 56 13 26 20 51 16 55 -4 4 -10 0 -13 -8 -3
-8 -22 -32 -42 -52 -34 -35 -42 -38 -91 -38 -74 0 -124 30 -157 94 -58 111
-30 247 62 301 79 46 183 23 209 -45 6 -17 15 -30 20 -30 5 0 6 7 3 16 -3 9
-6 31 -6 49 0 33 -2 34 -47 40 -27 4 -55 8 -63 10 -8 1 -36 -1 -61 -5z"/>
<path d="M12270 3571 c0 -22 -3 -46 -6 -55 -3 -9 -2 -16 4 -16 6 0 13 14 17
30 8 39 34 52 93 48 l47 -3 3 -175 c1 -96 0 -184 -2 -196 -4 -13 -19 -25 -38
-31 -28 -9 -17 -11 67 -11 90 -1 97 0 65 11 l-35 12 -3 198 -2 197 50 0 c55 0
90 -23 90 -60 0 -11 5 -20 10 -20 11 0 12 19 4 72 -4 21 -11 35 -16 32 -12 -8
-318 -7 -326 0 -14 15 -22 3 -22 -33z"/>
<path d="M13225 3601 c-60 -15 -105 -65 -105 -118 0 -38 40 -82 110 -123 81
-47 104 -82 89 -134 -12 -41 -34 -56 -82 -56 -32 0 -46 7 -73 36 -19 19 -34
42 -34 49 0 8 -4 17 -10 20 -12 8 -1 -85 12 -102 13 -16 90 -27 135 -18 54 10
103 63 103 112 0 54 -28 94 -91 127 -81 43 -109 73 -109 116 0 73 84 107 135
55 14 -13 25 -31 25 -39 0 -8 5 -18 12 -22 8 -5 9 5 4 37 -4 24 -10 47 -14 50
-12 12 -76 17 -107 10z"/>
<path d="M7457 3590 c4 -4 17 -10 28 -12 19 -3 20 -12 23 -196 l2 -193 -32
-14 c-32 -14 -29 -14 57 -14 86 0 89 0 58 14 l-33 14 0 80 0 81 44 -6 c89 -13
155 32 163 110 12 106 -34 138 -205 142 -63 1 -110 -2 -105 -6z m207 -21 c27
-13 56 -64 56 -99 0 -35 -29 -86 -56 -99 -14 -6 -43 -11 -64 -11 l-40 0 0 103
c0 57 3 107 7 110 10 11 70 8 97 -4z"/>
<path d="M8240 3591 c0 -6 12 -11 28 -13 l27 -3 3 -193 2 -193 -32 -14 c-32
-14 -29 -14 57 -14 86 0 89 0 58 14 l-33 14 0 79 c0 43 2 81 5 84 3 2 19 2 36
0 26 -4 39 -17 77 -76 63 -98 85 -116 138 -116 l27 0 -26 20 c-28 22 -127 164
-127 182 0 6 16 25 35 42 62 54 57 128 -10 172 -19 12 -56 17 -145 20 -70 2
-120 0 -120 -5z m231 -40 c24 -24 29 -38 29 -76 0 -38 -5 -52 -29 -76 -24 -24
-38 -29 -75 -29 l-46 0 0 98 c0 54 3 102 7 105 3 4 24 7 45 7 30 0 46 -7 69
-29z"/>
<path d="M9980 3589 c0 -5 8 -9 18 -9 38 0 42 -18 42 -209 0 -201 -8 -250 -46
-288 -35 -35 -21 -41 21 -9 65 50 70 69 73 286 2 115 8 200 14 207 6 7 19 13
29 13 11 0 19 4 19 9 0 4 -38 8 -85 9 -47 0 -85 -4 -85 -9z"/>
<path d="M10617 3589 c5 -4 17 -9 28 -11 19 -3 20 -11 20 -198 l0 -195 -35
-12 c-30 -10 -11 -12 131 -12 l167 -1 6 36 c4 19 10 42 13 50 11 29 -13 13
-31 -21 -22 -39 -59 -54 -125 -50 -66 5 -72 15 -69 114 l3 86 29 3 c55 7 96
-7 108 -36 l12 -27 4 32 c2 18 2 50 0 70 l-4 38 -12 -27 c-11 -26 -15 -28 -77
-28 l-65 0 0 90 0 90 68 0 c78 0 86 -4 106 -50 l15 -35 1 52 0 51 -150 -1
c-83 0 -147 -4 -143 -8z"/>
<path d="M9370 2383 c0 -5 7 -55 15 -113 16 -124 41 -209 78 -267 39 -62 66
-76 157 -81 91 -5 230 6 230 18 0 5 -15 13 -32 19 -48 16 -198 107 -237 144
-45 43 -91 106 -91 126 0 9 18 -5 44 -35 77 -87 232 -180 350 -210 28 -7 28
-6 21 27 -39 191 -127 321 -248 366 -35 13 -287 18 -287 6z"/>
<path d="M10373 2365 c-104 -48 -188 -170 -219 -314 -7 -36 -11 -67 -9 -69 7
-7 108 30 185 67 54 26 96 57 152 113 79 78 101 83 50 12 -56 -76 -150 -145
-281 -205 -28 -13 -51 -27 -51 -31 0 -10 140 -21 228 -17 93 5 121 20 164 90
33 52 73 205 81 307 l6 72 -127 0 c-113 0 -133 -3 -179 -25z"/>
<path d="M11119 1526 c-1 -124 -2 -232 -3 -238 -1 -7 9 -14 22 -16 20 -3 27 6
23 31 -2 11 6 9 45 -18 45 -31 97 -32 142 -5 92 56 106 208 27 287 -28 28 -40
33 -79 33 -47 0 -106 -22 -106 -40 0 -6 -5 -10 -11 -10 -6 0 -9 34 -8 98 l2
97 -27 3 -26 3 -1 -225z m218 -1 c43 -49 42 -147 -2 -191 -26 -26 -81 -32
-116 -14 -47 26 -63 117 -31 180 32 64 104 76 149 25z"/>
<path d="M11640 1510 l0 -240 30 0 30 0 0 240 0 240 -30 0 -30 0 0 -240z"/>
<path d="M2842 1713 c-40 -19 -62 -59 -62 -111 0 -51 31 -84 112 -121 35 -15
69 -36 77 -45 24 -29 18 -76 -14 -104 -29 -25 -44 -26 -160 -10 -14 2 -21 -3
-23 -18 -2 -16 5 -23 36 -32 125 -38 232 18 232 120 0 61 -26 92 -115 134 -54
25 -76 42 -84 63 -27 64 37 111 123 91 22 -5 44 -7 48 -4 17 11 7 42 -14 48
-43 11 -123 6 -156 -11z"/>
<path d="M6082 1718 c-30 -30 0 -78 37 -58 26 14 27 46 2 60 -24 13 -24 13
-39 -2z"/>
<path d="M9846 1714 c-9 -8 -16 -19 -16 -24 0 -11 29 -40 40 -40 11 0 40 29
40 40 0 11 -29 40 -40 40 -5 0 -16 -7 -24 -16z"/>
<path d="M16098 1719 c-38 -22 -5 -79 36 -63 19 7 21 45 4 62 -14 14 -18 14
-40 1z"/>
<path d="M16758 1719 c-24 -14 -23 -46 3 -59 37 -20 67 28 37 58 -14 14 -18
14 -40 1z"/>
<path d="M5748 1683 c-13 -3 -18 -15 -18 -44 0 -37 -2 -39 -31 -39 -26 0 -30
-3 -27 -22 2 -14 12 -24 28 -28 29 -7 27 1 29 -135 1 -98 3 -108 26 -130 18
-18 35 -25 65 -25 36 0 40 2 40 25 0 21 -5 25 -30 25 -42 0 -50 23 -50 139 l0
100 43 3 c34 2 42 7 42 23 0 16 -8 21 -42 23 l-43 3 0 45 c0 24 -3 43 -7 43
-5 -1 -16 -3 -25 -6z"/>
<path d="M9048 1683 c-13 -3 -18 -15 -18 -43 0 -35 -3 -39 -27 -42 -20 -2 -28
-9 -28 -23 0 -14 8 -21 28 -23 l27 -3 0 -120 c0 -115 1 -121 25 -145 34 -34
98 -31 103 4 3 19 -1 22 -27 22 -43 0 -51 22 -51 139 l0 101 45 0 c41 0 45 2
45 25 0 23 -4 25 -45 25 l-45 0 0 45 c0 25 -3 44 -7 44 -5 -1 -16 -3 -25 -6z"/>
<path d="M16418 1683 c-13 -3 -18 -15 -18 -44 0 -35 -3 -39 -25 -39 -20 0 -25
-5 -25 -25 0 -20 5 -25 24 -25 24 0 24 0 28 -125 4 -147 10 -158 85 -159 42
-1 48 2 48 19 0 15 -8 21 -35 25 -42 6 -48 22 -49 148 l-1 92 45 0 c41 0 45 2
45 25 0 23 -4 25 -45 25 l-45 0 0 45 c0 25 -3 44 -7 44 -5 -1 -16 -3 -25 -6z"/>
<path d="M3260 1480 c0 -138 12 -180 59 -204 43 -23 83 -20 124 8 35 24 36 24
42 5 4 -12 15 -19 31 -19 l24 0 -2 163 -3 162 -27 3 -26 3 -4 -121 c-3 -119
-4 -122 -31 -146 -35 -30 -80 -31 -107 -2 -18 19 -20 35 -20 145 l0 123 -30 0
-30 0 0 -120z"/>
<path d="M3775 1588 c-2 -7 -3 -112 -2 -233 l2 -220 28 -3 27 -3 0 85 c0 47 2
86 4 86 3 0 21 -10 41 -21 65 -39 147 -12 186 61 24 44 25 139 2 187 -34 73
-127 95 -197 48 -20 -13 -37 -22 -37 -20 -5 16 -7 26 -8 35 -2 14 -41 12 -46
-2z m202 -48 c49 -29 65 -101 38 -167 -20 -47 -41 -62 -91 -63 -31 0 -46 6
-65 26 -21 22 -24 35 -24 94 0 54 4 72 20 90 38 43 75 49 122 20z"/>
<path d="M4300 1364 l0 -235 28 3 27 3 0 83 c0 45 1 82 2 82 2 0 17 -9 35 -20
86 -52 187 2 210 112 15 71 0 128 -47 175 -28 28 -40 33 -80 33 -44 0 -105
-24 -105 -42 0 -4 -4 -8 -10 -8 -5 0 -10 11 -10 25 0 20 -5 25 -25 25 l-25 0
0 -236z m219 161 c48 -48 37 -175 -18 -205 -36 -19 -90 -12 -116 15 -22 21
-25 33 -25 90 0 75 9 98 48 120 35 19 80 11 111 -20z"/>
<path d="M4877 1578 c-53 -31 -81 -92 -75 -164 13 -153 193 -208 285 -87 25
32 28 45 28 107 0 80 -16 113 -70 146 -44 27 -118 26 -168 -2z m134 -31 c48
-36 64 -138 30 -193 -58 -95 -181 -45 -181 74 0 53 23 106 53 120 30 14 79 14
98 -1z"/>
<path d="M5338 1593 c-2 -5 -2 -79 0 -165 3 -158 3 -158 27 -158 22 0 23 3 26
108 5 127 18 157 74 168 28 5 35 11 35 30 0 37 -51 33 -83 -6 -24 -28 -45 -42
-32 -20 11 18 -6 50 -25 50 -10 0 -20 -3 -22 -7z"/>
<path d="M6077 1593 c-4 -3 -7 -78 -7 -165 l0 -158 30 0 30 0 0 165 0 165 -23
0 c-13 0 -27 -3 -30 -7z"/>
<path d="M6370 1435 l0 -165 30 0 30 0 0 114 c0 106 2 117 24 142 18 21 32 28
60 28 62 0 71 -17 74 -159 l4 -125 29 0 29 0 0 115 c0 164 -27 215 -113 215
-40 0 -97 -24 -97 -40 0 -6 -4 -10 -10 -10 -5 0 -10 11 -10 25 0 20 -5 25 -25
25 l-25 0 0 -165z"/>
<path d="M6933 1578 c-44 -31 -67 -82 -67 -148 0 -66 23 -113 67 -140 44 -27
96 -25 141 5 l36 24 0 -28 c0 -101 -70 -141 -186 -106 -15 5 -23 1 -28 -11
-11 -29 11 -39 92 -42 64 -3 83 0 110 18 56 35 66 72 70 273 l4 177 -26 0
c-19 0 -26 -5 -26 -20 0 -11 -3 -20 -6 -20 -3 0 -17 9 -31 20 -36 28 -108 27
-150 -2z m151 -47 c14 -14 21 -38 24 -79 5 -74 -14 -116 -61 -131 -64 -21
-116 18 -124 93 -10 85 41 153 106 142 19 -3 44 -14 55 -25z"/>
<path d="M7713 1580 c-36 -22 -52 -74 -34 -109 7 -12 39 -35 71 -51 72 -36 88
-71 49 -103 -23 -18 -46 -19 -105 -2 -16 5 -23 2 -27 -14 -4 -15 2 -22 26 -30
74 -26 149 -3 173 55 23 54 2 91 -72 129 -61 32 -79 60 -54 91 14 16 63 19 90
4 15 -8 20 -6 25 11 5 14 2 25 -6 30 -25 16 -103 10 -136 -11z"/>
<path d="M8092 1468 c2 -106 7 -138 21 -159 36 -53 103 -63 161 -24 44 30 46
30 46 5 0 -15 7 -20 25 -20 l25 0 0 165 0 165 -30 0 -30 0 0 -116 c0 -114 0
-116 -29 -145 -19 -18 -40 -29 -58 -29 -61 0 -73 30 -73 174 l0 116 -31 0 -31
0 4 -132z"/>
<path d="M8620 1572 c-54 -54 -37 -108 49 -152 72 -36 90 -71 51 -102 -26 -21
-44 -22 -90 -7 -26 9 -34 9 -41 -2 -14 -22 -11 -26 22 -38 109 -38 205 28 175
119 -9 27 -23 40 -71 65 -62 32 -80 60 -55 91 14 16 63 19 90 4 15 -8 20 -6
25 11 9 28 3 32 -65 37 -55 4 -61 2 -90 -26z"/>
<path d="M9404 1590 c-27 -11 -35 -22 -25 -38 6 -10 15 -10 35 -2 67 25 122 4
128 -50 3 -22 -1 -24 -42 -27 -61 -5 -96 -20 -125 -55 -48 -57 -21 -140 50
-154 36 -6 105 11 105 27 0 5 7 9 15 9 8 0 14 -6 13 -12 -2 -7 9 -14 23 -16
l25 -3 -4 123 c-4 139 -13 173 -53 193 -31 16 -111 19 -145 5z m144 -191 c6
-67 -63 -118 -114 -84 -25 16 -32 57 -15 83 10 17 79 42 106 39 15 -1 21 -11
23 -38z"/>
<path d="M9840 1435 l0 -165 30 0 30 0 0 165 0 165 -30 0 -30 0 0 -165z"/>
<path d="M10134 1563 c3 -21 6 -95 6 -165 l0 -128 25 0 25 0 0 105 c0 119 9
148 56 170 29 14 38 14 61 3 43 -20 53 -52 53 -171 l0 -108 28 3 c33 4 37 28
27 168 -7 89 -9 96 -40 127 -43 43 -107 47 -153 8 -17 -14 -33 -25 -36 -25 -3
0 -6 11 -6 25 0 20 -5 25 -26 25 -25 0 -26 -2 -20 -37z"/>
<path d="M10678 1588 c-30 -10 -33 -15 -19 -37 6 -10 13 -11 29 -2 56 30 132
0 132 -52 0 -21 -5 -24 -46 -26 -55 -2 -119 -32 -135 -62 -52 -97 60 -189 154
-125 35 24 37 24 37 6 0 -15 7 -20 26 -20 l26 0 -4 136 -3 136 -33 29 c-27 25
-40 29 -85 28 -28 0 -64 -5 -79 -11z m148 -183 c2 -81 -77 -134 -126 -85 -39
39 -13 95 50 110 59 14 75 9 76 -25z"/>
<path d="M11990 1578 c-94 -64 -98 -224 -8 -291 54 -40 190 -32 196 11 4 24
-2 24 -70 6 -29 -8 -97 16 -112 39 -8 12 -18 34 -21 49 l-7 27 118 3 119 3 -3
39 c-4 49 -24 88 -58 115 -37 29 -110 28 -154 -1z m115 -24 c18 -7 45 -54 45
-79 0 -12 -15 -15 -90 -15 -49 0 -90 2 -90 5 0 19 31 75 47 84 20 12 63 14 88
5z"/>
<path d="M12774 1590 c-66 -26 -109 -117 -94 -197 16 -90 64 -128 162 -128 69
0 93 11 83 36 -4 12 -19 14 -63 11 -68 -5 -103 17 -122 74 -34 101 54 199 149
166 26 -9 31 -8 37 10 4 13 1 24 -7 29 -18 11 -117 10 -145 -1z"/>
<path d="M13190 1577 c-98 -65 -102 -220 -7 -291 40 -29 134 -30 174 0 52 39
73 81 73 148 0 71 -22 115 -72 146 -47 28 -125 27 -168 -3z m124 -27 c39 -15
59 -63 54 -133 -4 -52 -9 -64 -36 -88 -36 -32 -60 -36 -101 -14 -54 27 -75
111 -47 179 24 58 72 78 130 56z"/>
<path d="M13650 1436 l0 -166 30 0 30 0 0 118 c0 110 2 120 23 139 31 28 53
34 82 21 34 -15 45 -56 45 -174 0 -103 0 -104 24 -104 24 0 24 1 28 120 3 107
5 122 25 141 26 27 77 29 101 5 14 -13 18 -40 20 -141 l4 -125 29 0 29 0 0
108 c0 59 -5 124 -10 144 -22 80 -120 106 -178 49 l-29 -29 -27 29 c-37 39
-100 41 -145 4 l-30 -26 -3 23 c-2 15 -11 24 -25 26 l-23 3 0 -165z"/>
<path d="M14350 1435 l0 -165 30 0 30 0 0 114 c0 106 2 117 23 142 31 35 82
38 109 5 15 -20 18 -41 18 -142 l0 -119 30 0 30 0 0 110 c0 122 9 153 51 171
24 9 33 9 54 -5 37 -24 45 -54 45 -172 l0 -104 25 0 25 0 0 119 c0 66 -4 131
-9 144 -27 71 -114 91 -172 39 l-31 -28 -28 28 c-21 20 -38 28 -65 28 -38 0
-95 -24 -95 -40 0 -6 -4 -10 -10 -10 -5 0 -10 11 -10 25 0 20 -5 25 -25 25
l-25 0 0 -165z"/>
<path d="M15060 1480 c0 -138 12 -180 59 -204 43 -23 83 -20 125 9 44 30 46
30 46 5 0 -14 7 -20 23 -20 l22 0 -2 162 -3 163 -24 3 -24 3 -4 -120 c-3 -110
-5 -121 -27 -145 -28 -29 -75 -35 -107 -12 -17 13 -20 31 -24 143 l-5 128 -27
3 -28 3 0 -121z"/>
<path d="M15570 1435 l0 -165 30 0 30 0 0 111 c0 61 5 119 11 131 15 29 72 50
103 38 41 -15 49 -44 47 -167 l-2 -113 31 0 30 0 0 120 c0 129 -9 164 -52 194
-12 9 -40 16 -61 16 -37 0 -97 -26 -97 -42 0 -4 -4 -8 -10 -8 -5 0 -10 11 -10
25 0 20 -5 25 -25 25 l-25 0 0 -165z"/>
<path d="M16090 1436 l0 -166 30 0 30 0 -2 163 -3 162 -27 3 -28 3 0 -165z"/>
<path d="M16750 1435 l0 -165 25 0 25 0 0 165 0 165 -25 0 -25 0 0 -165z"/>
<path d="M17093 1578 c-44 -31 -64 -69 -70 -132 -11 -109 60 -187 168 -185 78
2 109 17 91 46 -6 10 -17 10 -47 2 -73 -20 -155 26 -155 87 0 24 1 24 115 24
l115 0 0 33 c0 44 -39 119 -70 134 -41 21 -111 16 -147 -9z m136 -44 c12 -15
21 -37 21 -50 0 -23 -2 -24 -85 -24 -77 0 -85 2 -85 19 0 11 12 33 26 50 35
42 92 44 123 5z"/>
<path d="M17540 1572 c-56 -56 -35 -116 55 -158 55 -27 72 -52 54 -85 -13 -26
-51 -33 -95 -19 -30 10 -38 10 -45 -1 -14 -22 -11 -26 22 -38 43 -15 83 -14
124 3 39 17 55 42 55 89 0 39 -18 59 -88 97 -60 33 -72 53 -48 79 20 22 65 28
96 11 14 -8 19 -5 23 12 4 12 4 24 1 27 -2 3 -31 7 -64 9 -55 4 -61 2 -90 -26z"/>
<path d="M2880 730 l0 -50 7355 0 7355 0 0 50 0 50 -7355 0 -7355 0 0 -50z"/>
</g>
</svg>
